<svg xmlns="http://www.w3.org/2000/svg" xmlns:xlink="http://www.w3.org/1999/xlink" width="969" zoomAndPan="magnify" viewBox="0 0 726.75 113.999999" height="152" preserveAspectRatio="xMidYMid meet" version="1.0"><defs><filter x="0%" y="0%" width="100%" height="100%" id="bda48dfcbb"><feColorMatrix values="0 0 0 0 1 0 0 0 0 1 0 0 0 0 1 0 0 0 1 0" color-interpolation-filters="sRGB"/></filter><g/><clipPath id="08011e1596"><path d="M 55 7 L 726.355469 7 L 726.355469 107.4375 L 55 107.4375 Z M 55 7 " clip-rule="nonzero"/></clipPath><clipPath id="fab1befef6"><path d="M 67.179688 7.308594 L 714.277344 7.308594 C 717.457031 7.308594 720.507812 8.570312 722.757812 10.820312 C 725.007812 13.070312 726.273438 16.121094 726.273438 19.304688 L 726.273438 95.441406 C 726.273438 98.621094 725.007812 101.671875 722.757812 103.921875 C 720.507812 106.171875 717.457031 107.4375 714.277344 107.4375 L 67.179688 107.4375 C 64 107.4375 60.949219 106.171875 58.699219 103.921875 C 56.449219 101.671875 55.183594 98.621094 55.183594 95.441406 L 55.183594 19.304688 C 55.183594 16.121094 56.449219 13.070312 58.699219 10.820312 C 60.949219 8.570312 64 7.308594 67.179688 7.308594 Z M 67.179688 7.308594 " clip-rule="nonzero"/></clipPath><clipPath id="4227d4143c"><path d="M 55 7 L 726.5 7 L 726.5 108 L 55 108 Z M 55 7 " clip-rule="nonzero"/></clipPath><mask id="574db52384"><g filter="url(#bda48dfcbb)"><rect x="-72.675" width="872.1" fill="#000000" y="-11.4" height="136.799998" fill-opacity="0.3"/></g></mask><clipPath id="ba8a27e8e7"><path d="M 0.195312 0.363281 L 671.273438 0.363281 L 671.273438 100.492188 L 0.195312 100.492188 Z M 0.195312 0.363281 " clip-rule="nonzero"/></clipPath><clipPath id="e8814593f8"><rect x="0" width="672" y="0" height="101"/></clipPath><clipPath id="321cb4be8f"><path d="M 0 3.273438 L 110.386719 3.273438 L 110.386719 113.660156 L 0 113.660156 Z M 0 3.273438 " clip-rule="nonzero"/></clipPath><clipPath id="fa8c8df62e"><path d="M 55.195312 3.273438 C 24.710938 3.273438 0 27.984375 0 58.46875 C 0 88.949219 24.710938 113.660156 55.195312 113.660156 C 85.675781 113.660156 110.386719 88.949219 110.386719 58.46875 C 110.386719 27.984375 85.675781 3.273438 55.195312 3.273438 Z M 55.195312 3.273438 " clip-rule="nonzero"/></clipPath><clipPath id="9b073c1e42"><path d="M 0 3.273438 L 110.210938 3.273438 L 110.210938 113.484375 L 0 113.484375 Z M 0 3.273438 " clip-rule="nonzero"/></clipPath><clipPath id="7da7b44cdf"><path d="M 55.1875 3.273438 C 24.707031 3.273438 0 27.984375 0 58.460938 C 0 88.941406 24.707031 113.648438 55.1875 113.648438 C 85.667969 113.648438 110.375 88.941406 110.375 58.460938 C 110.375 27.984375 85.667969 3.273438 55.1875 3.273438 Z M 55.1875 3.273438 " clip-rule="nonzero"/></clipPath><clipPath id="774ed393ea"><path d="M 0 0.0195312 L 116 0.0195312 L 116 113.980469 L 0 113.980469 Z M 0 0.0195312 " clip-rule="nonzero"/></clipPath><mask id="dec53f1dda"><g filter="url(#bda48dfcbb)"><rect x="-72.675" width="872.1" fill="#000000" y="-11.4" height="136.799998" fill-opacity="0.3"/></g></mask><clipPath id="c9c9208829"><path d="M 1.351562 4.859375 L 109 4.859375 L 109 111.925781 L 1.351562 111.925781 Z M 1.351562 4.859375 " clip-rule="nonzero"/></clipPath><clipPath id="2286ea570e"><path d="M 55.183594 4.859375 C 25.453125 4.859375 1.351562 28.828125 1.351562 58.394531 C 1.351562 87.957031 25.453125 111.925781 55.183594 111.925781 C 84.914062 111.925781 109.019531 87.957031 109.019531 58.394531 C 109.019531 28.828125 84.914062 4.859375 55.183594 4.859375 Z M 55.183594 4.859375 " clip-rule="nonzero"/></clipPath><clipPath id="8e78ce6226"><path d="M 1.351562 4.859375 L 109.3125 4.859375 L 109.3125 112 L 1.351562 112 Z M 1.351562 4.859375 " clip-rule="nonzero"/></clipPath><clipPath id="d76c0cd27e"><path d="M 55.179688 4.859375 C 25.449219 4.859375 1.351562 28.824219 1.351562 58.390625 C 1.351562 87.953125 25.449219 111.917969 55.179688 111.917969 C 84.910156 111.917969 109.007812 87.953125 109.007812 58.390625 C 109.007812 28.824219 84.910156 4.859375 55.179688 4.859375 Z M 55.179688 4.859375 " clip-rule="nonzero"/></clipPath><clipPath id="cdaaf7d517"><rect x="0" width="116" y="0" height="114"/></clipPath><clipPath id="2237d3bccf"><path d="M 49 81 L 61 81 L 61 93.394531 L 49 93.394531 Z M 49 81 " clip-rule="nonzero"/></clipPath><clipPath id="5500e86f89"><path d="M 34.882812 23.667969 L 75.371094 23.667969 L 75.371094 78 L 34.882812 78 Z M 34.882812 23.667969 " clip-rule="nonzero"/></clipPath></defs><g clip-path="url(#08011e1596)"><g clip-path="url(#fab1befef6)"><path fill="#9246dd" d="M 55.183594 7.308594 L 726.355469 7.308594 L 726.355469 107.4375 L 55.183594 107.4375 Z M 55.183594 7.308594 " fill-opacity="1" fill-rule="nonzero"/></g></g><g clip-path="url(#4227d4143c)"><g mask="url(#574db52384)"><g transform="matrix(1, 0, 0, 1, 55, 7)"><g clip-path="url(#e8814593f8)"><g clip-path="url(#ba8a27e8e7)"><path fill="#ffffff" d="M 0.195312 0.363281 L 671.363281 0.363281 L 671.363281 100.492188 L 0.195312 100.492188 Z M 0.195312 0.363281 " fill-opacity="1" fill-rule="nonzero"/></g></g></g></g></g><g clip-path="url(#321cb4be8f)"><g clip-path="url(#fa8c8df62e)"><path fill="#9246dd" d="M 0 3.273438 L 110.386719 3.273438 L 110.386719 113.660156 L 0 113.660156 Z M 0 3.273438 " fill-opacity="1" fill-rule="nonzero"/></g></g><g clip-path="url(#9b073c1e42)"><g clip-path="url(#7da7b44cdf)"><path stroke-linecap="butt" transform="matrix(0.749742, 0, 0, 0.749742, 0.000000000000053272, 3.273912)" fill="none" stroke-linejoin="miter" d="M 73.608649 -0.00063305 C 32.954042 -0.00063305 -0.000000000000071054 32.958619 -0.000000000000071054 73.608016 C -0.000000000000071054 114.262623 32.954042 147.216665 73.608649 147.216665 C 114.263256 147.216665 147.217298 114.262623 147.217298 73.608016 C 147.217298 32.958619 114.263256 -0.00063305 73.608649 -0.00063305 Z M 73.608649 -0.00063305 " stroke="#000000" stroke-width="4" stroke-opacity="1" stroke-miterlimit="4"/></g></g><g clip-path="url(#774ed393ea)"><g mask="url(#dec53f1dda)"><g transform="matrix(1, 0, 0, 1, 0, -0.000000000000002682)"><g clip-path="url(#cdaaf7d517)"><g clip-path="url(#c9c9208829)"><g clip-path="url(#2286ea570e)"><path fill="#ffffff" d="M 1.351562 4.859375 L 108.835938 4.859375 L 108.835938 111.925781 L 1.351562 111.925781 Z M 1.351562 4.859375 " fill-opacity="1" fill-rule="nonzero"/></g></g><g clip-path="url(#8e78ce6226)"><g clip-path="url(#d76c0cd27e)"><path stroke-linecap="butt" transform="matrix(0.749742, 0, 0, 0.749742, 1.350895, 4.860187)" fill="none" stroke-linejoin="miter" d="M 71.796415 -0.00108283 C 32.142152 -0.00108283 0.000890104 31.963035 0.000890104 71.398473 C 0.000890104 110.8287 32.142152 142.792819 71.796415 142.792819 C 111.450678 142.792819 143.591941 110.8287 143.591941 71.398473 C 143.591941 31.963035 111.450678 -0.00108283 71.796415 -0.00108283 Z M 71.796415 -0.00108283 " stroke="#ffffff" stroke-width="4" stroke-opacity="1" stroke-miterlimit="4"/></g></g></g></g></g></g><g clip-path="url(#2237d3bccf)"><path fill="#000000" d="M 60.910156 87.523438 C 60.910156 87.902344 60.871094 88.28125 60.796875 88.65625 C 60.726562 89.03125 60.613281 89.394531 60.46875 89.746094 C 60.324219 90.097656 60.144531 90.433594 59.933594 90.75 C 59.722656 91.070312 59.484375 91.363281 59.214844 91.632812 C 58.949219 91.902344 58.65625 92.144531 58.339844 92.355469 C 58.023438 92.566406 57.691406 92.746094 57.339844 92.894531 C 56.988281 93.039062 56.628906 93.148438 56.253906 93.222656 C 55.882812 93.296875 55.507812 93.335938 55.125 93.335938 C 54.746094 93.335938 54.371094 93.296875 53.996094 93.222656 C 53.625 93.148438 53.265625 93.039062 52.914062 92.894531 C 52.5625 92.746094 52.230469 92.566406 51.914062 92.355469 C 51.597656 92.144531 51.304688 91.902344 51.035156 91.632812 C 50.769531 91.363281 50.527344 91.070312 50.316406 90.75 C 50.105469 90.433594 49.929688 90.097656 49.78125 89.746094 C 49.636719 89.394531 49.527344 89.03125 49.453125 88.65625 C 49.378906 88.28125 49.34375 87.902344 49.34375 87.523438 C 49.34375 87.140625 49.378906 86.761719 49.453125 86.386719 C 49.527344 86.015625 49.636719 85.652344 49.78125 85.296875 C 49.929688 84.945312 50.105469 84.609375 50.316406 84.292969 C 50.527344 83.976562 50.769531 83.683594 51.035156 83.410156 C 51.304688 83.140625 51.597656 82.902344 51.914062 82.6875 C 52.230469 82.476562 52.5625 82.296875 52.914062 82.152344 C 53.265625 82.007812 53.625 81.894531 53.996094 81.820312 C 54.371094 81.746094 54.746094 81.710938 55.125 81.710938 C 55.507812 81.710938 55.882812 81.746094 56.253906 81.820312 C 56.628906 81.894531 56.988281 82.007812 57.339844 82.152344 C 57.691406 82.296875 58.023438 82.476562 58.339844 82.6875 C 58.65625 82.902344 58.949219 83.140625 59.214844 83.410156 C 59.484375 83.683594 59.722656 83.976562 59.933594 84.292969 C 60.144531 84.609375 60.324219 84.945312 60.46875 85.296875 C 60.613281 85.652344 60.726562 86.015625 60.796875 86.386719 C 60.871094 86.761719 60.910156 87.140625 60.910156 87.523438 Z M 60.910156 87.523438 " fill-opacity="1" fill-rule="nonzero"/></g><g clip-path="url(#5500e86f89)"><path fill="#000000" d="M 75.371094 43.925781 C 75.371094 43.257812 75.335938 42.59375 75.273438 41.929688 C 75.207031 41.269531 75.109375 40.609375 74.980469 39.957031 C 74.851562 39.304688 74.691406 38.65625 74.496094 38.019531 C 74.304688 37.382812 74.082031 36.753906 73.828125 36.140625 C 73.574219 35.523438 73.292969 34.921875 72.980469 34.335938 C 72.667969 33.746094 72.324219 33.175781 71.957031 32.621094 C 71.589844 32.070312 71.195312 31.535156 70.773438 31.019531 C 70.355469 30.503906 69.910156 30.011719 69.441406 29.539062 C 68.972656 29.070312 68.480469 28.621094 67.96875 28.199219 C 67.457031 27.777344 66.925781 27.378906 66.371094 27.007812 C 65.820312 26.640625 65.253906 26.296875 64.667969 25.984375 C 64.085938 25.667969 63.484375 25.382812 62.871094 25.128906 C 62.261719 24.875 61.636719 24.648438 61.003906 24.457031 C 60.367188 24.261719 59.726562 24.101562 59.074219 23.972656 C 58.425781 23.839844 57.769531 23.742188 57.109375 23.679688 C 56.449219 23.613281 55.789062 23.582031 55.125 23.582031 C 54.464844 23.582031 53.800781 23.613281 53.140625 23.679688 C 52.480469 23.742188 51.828125 23.839844 51.175781 23.972656 C 50.527344 24.101562 49.882812 24.261719 49.25 24.457031 C 48.617188 24.648438 47.992188 24.875 47.378906 25.128906 C 46.765625 25.382812 46.167969 25.667969 45.582031 25.984375 C 45 26.296875 44.429688 26.640625 43.878906 27.007812 C 43.328125 27.378906 42.796875 27.777344 42.285156 28.199219 C 41.773438 28.621094 41.28125 29.070312 40.8125 29.539062 C 40.34375 30.011719 39.898438 30.503906 39.476562 31.019531 C 39.058594 31.535156 38.664062 32.070312 38.292969 32.621094 C 37.925781 33.175781 37.585938 33.746094 37.273438 34.335938 C 36.960938 34.921875 36.679688 35.523438 36.425781 36.140625 C 36.171875 36.753906 35.949219 37.382812 35.753906 38.019531 C 35.5625 38.65625 35.402344 39.304688 35.273438 39.957031 C 35.144531 40.609375 35.046875 41.269531 34.980469 41.929688 C 34.914062 42.59375 34.882812 43.257812 34.882812 43.925781 C 34.882812 44.308594 34.921875 44.683594 34.996094 45.058594 C 35.070312 45.433594 35.179688 45.796875 35.324219 46.148438 C 35.46875 46.503906 35.648438 46.839844 35.859375 47.15625 C 36.070312 47.472656 36.308594 47.765625 36.578125 48.035156 C 36.847656 48.304688 37.136719 48.546875 37.453125 48.757812 C 37.769531 48.972656 38.101562 49.148438 38.453125 49.296875 C 38.804688 49.441406 39.167969 49.550781 39.539062 49.628906 C 39.910156 49.703125 40.289062 49.738281 40.667969 49.738281 C 41.046875 49.738281 41.421875 49.703125 41.796875 49.628906 C 42.167969 49.550781 42.53125 49.441406 42.878906 49.296875 C 43.230469 49.148438 43.5625 48.972656 43.878906 48.757812 C 44.195312 48.546875 44.488281 48.304688 44.757812 48.035156 C 45.023438 47.765625 45.265625 47.472656 45.476562 47.15625 C 45.6875 46.839844 45.863281 46.503906 46.011719 46.148438 C 46.15625 45.796875 46.265625 45.433594 46.339844 45.058594 C 46.414062 44.683594 46.449219 44.308594 46.449219 43.925781 C 46.449219 43.351562 46.507812 42.785156 46.617188 42.226562 C 46.726562 41.664062 46.894531 41.117188 47.109375 40.589844 C 47.328125 40.058594 47.597656 39.558594 47.914062 39.082031 C 48.230469 38.605469 48.589844 38.164062 48.992188 37.761719 C 49.394531 37.355469 49.832031 36.992188 50.304688 36.675781 C 50.78125 36.359375 51.28125 36.089844 51.804688 35.871094 C 52.332031 35.652344 52.875 35.484375 53.433594 35.375 C 53.992188 35.261719 54.554688 35.207031 55.125 35.207031 C 55.695312 35.207031 56.261719 35.261719 56.820312 35.375 C 57.378906 35.484375 57.921875 35.652344 58.445312 35.871094 C 58.972656 36.089844 59.472656 36.359375 59.945312 36.675781 C 60.417969 36.992188 60.859375 37.355469 61.261719 37.761719 C 61.664062 38.164062 62.023438 38.605469 62.339844 39.082031 C 62.65625 39.558594 62.921875 40.058594 63.140625 40.589844 C 63.359375 41.117188 63.523438 41.664062 63.636719 42.226562 C 63.746094 42.785156 63.800781 43.351562 63.800781 43.925781 C 63.800781 44.5 63.746094 45.066406 63.636719 45.625 C 63.523438 46.1875 63.359375 46.734375 63.140625 47.261719 C 62.921875 47.792969 62.65625 48.292969 62.339844 48.769531 C 62.023438 49.246094 61.664062 49.6875 61.261719 50.089844 C 60.859375 50.496094 60.417969 50.859375 59.945312 51.175781 C 59.472656 51.492188 58.972656 51.761719 58.445312 51.980469 C 57.921875 52.199219 57.378906 52.367188 56.820312 52.476562 C 56.261719 52.589844 55.695312 52.644531 55.125 52.644531 C 54.746094 52.644531 54.371094 52.683594 53.996094 52.757812 C 53.625 52.832031 53.265625 52.941406 52.914062 53.085938 C 52.5625 53.234375 52.230469 53.414062 51.914062 53.625 C 51.597656 53.835938 51.304688 54.078125 51.035156 54.347656 C 50.769531 54.617188 50.527344 54.910156 50.316406 55.230469 C 50.105469 55.546875 49.929688 55.882812 49.78125 56.234375 C 49.636719 56.585938 49.527344 56.949219 49.453125 57.324219 C 49.378906 57.699219 49.34375 58.078125 49.34375 58.457031 L 49.34375 71.535156 C 49.34375 71.917969 49.378906 72.296875 49.453125 72.671875 C 49.527344 73.046875 49.636719 73.410156 49.78125 73.761719 C 49.929688 74.113281 50.105469 74.449219 50.316406 74.765625 C 50.527344 75.082031 50.769531 75.378906 51.035156 75.648438 C 51.304688 75.917969 51.597656 76.15625 51.914062 76.371094 C 52.230469 76.582031 52.5625 76.761719 52.914062 76.90625 C 53.265625 77.054688 53.625 77.164062 53.996094 77.238281 C 54.371094 77.3125 54.746094 77.351562 55.125 77.351562 C 55.507812 77.351562 55.882812 77.3125 56.253906 77.238281 C 56.628906 77.164062 56.988281 77.054688 57.339844 76.90625 C 57.691406 76.761719 58.023438 76.582031 58.339844 76.371094 C 58.65625 76.15625 58.949219 75.917969 59.214844 75.648438 C 59.484375 75.378906 59.722656 75.082031 59.933594 74.765625 C 60.144531 74.449219 60.324219 74.113281 60.46875 73.761719 C 60.613281 73.410156 60.726562 73.046875 60.796875 72.671875 C 60.871094 72.296875 60.910156 71.917969 60.910156 71.535156 L 60.910156 63.414062 C 61.945312 63.101562 62.953125 62.710938 63.925781 62.234375 C 64.902344 61.761719 65.832031 61.214844 66.71875 60.589844 C 67.605469 59.964844 68.4375 59.277344 69.214844 58.519531 C 69.988281 57.761719 70.703125 56.945312 71.347656 56.074219 C 71.996094 55.203125 72.570312 54.285156 73.070312 53.320312 C 73.570312 52.355469 73.992188 51.359375 74.332031 50.324219 C 74.675781 49.292969 74.933594 48.242188 75.105469 47.167969 C 75.28125 46.09375 75.367188 45.011719 75.371094 43.925781 Z M 75.371094 43.925781 " fill-opacity="1" fill-rule="nonzero"/></g><g fill="#000000" fill-opacity="1"><g transform="translate(122.902346, 55.497519)"><g><path d="M 16.578125 -12.6875 L 16 -10.65625 C 15.707031 -9.570312 15.429688 -8.503906 15.171875 -7.453125 C 14.910156 -6.410156 14.632812 -5.367188 14.34375 -4.328125 C 14.15625 -3.640625 13.957031 -2.96875 13.75 -2.3125 C 13.539062 -1.664062 13.332031 -1.015625 13.125 -0.359375 C 13.070312 -0.148438 13.003906 0.0351562 12.921875 0.203125 C 12.816406 0.460938 12.632812 0.550781 12.375 0.46875 C 12.144531 0.414062 11.914062 0.375 11.6875 0.34375 C 11.46875 0.320312 11.253906 0.273438 11.046875 0.203125 C 10.941406 0.148438 10.863281 0.0703125 10.8125 -0.03125 C 10.757812 -0.144531 10.707031 -0.238281 10.65625 -0.3125 C 10.257812 -0.414062 9.875 -0.515625 9.5 -0.609375 C 9.132812 -0.703125 8.769531 -0.8125 8.40625 -0.9375 C 7.988281 -1.039062 7.675781 -1.289062 7.46875 -1.6875 C 7.382812 -1.820312 7.269531 -1.941406 7.125 -2.046875 C 6.988281 -2.148438 6.84375 -2.253906 6.6875 -2.359375 C 6.394531 -2.566406 6.148438 -2.8125 5.953125 -3.09375 C 5.753906 -3.382812 5.550781 -3.675781 5.34375 -3.96875 C 5.15625 -4.257812 4.992188 -4.546875 4.859375 -4.828125 C 4.734375 -5.117188 4.609375 -5.410156 4.484375 -5.703125 C 4.328125 -5.984375 4.203125 -6.273438 4.109375 -6.578125 C 4.015625 -6.878906 3.941406 -7.1875 3.890625 -7.5 C 3.753906 -8.101562 3.628906 -8.710938 3.515625 -9.328125 C 3.398438 -9.941406 3.273438 -10.550781 3.140625 -11.15625 C 3.035156 -11.601562 2.953125 -12.050781 2.890625 -12.5 C 2.828125 -12.945312 2.753906 -13.390625 2.671875 -13.828125 L 2.28125 -15.71875 C 2.226562 -16.007812 2.1875 -16.289062 2.15625 -16.5625 C 2.132812 -16.832031 2.097656 -17.113281 2.046875 -17.40625 L 1.578125 -20.625 L 1.5 -20.90625 C 1.363281 -21.113281 1.269531 -21.332031 1.21875 -21.5625 C 1.164062 -21.800781 1.113281 -22.054688 1.0625 -22.328125 C 0.976562 -22.921875 0.90625 -23.53125 0.84375 -24.15625 C 0.78125 -24.789062 0.734375 -25.421875 0.703125 -26.046875 C 0.703125 -26.441406 0.726562 -26.835938 0.78125 -27.234375 C 0.832031 -27.628906 0.882812 -28.019531 0.9375 -28.40625 C 1.019531 -28.882812 1.132812 -29.351562 1.28125 -29.8125 C 1.425781 -30.269531 1.578125 -30.71875 1.734375 -31.15625 C 1.859375 -31.445312 1.976562 -31.71875 2.09375 -31.96875 C 2.21875 -32.21875 2.359375 -32.472656 2.515625 -32.734375 C 2.535156 -32.921875 2.707031 -33.078125 3.03125 -33.203125 C 3.3125 -33.359375 3.582031 -33.539062 3.84375 -33.75 C 4.113281 -33.96875 4.390625 -34.179688 4.671875 -34.390625 C 4.960938 -34.597656 5.269531 -34.675781 5.59375 -34.625 C 5.925781 -34.570312 6.234375 -34.441406 6.515625 -34.234375 C 7.046875 -33.890625 7.453125 -33.460938 7.734375 -32.953125 C 8.023438 -32.441406 8.300781 -31.894531 8.5625 -31.3125 C 8.851562 -30.632812 9.078125 -29.945312 9.234375 -29.25 C 9.390625 -28.5625 9.519531 -27.847656 9.625 -27.109375 C 9.625 -26.953125 9.640625 -26.847656 9.671875 -26.796875 C 9.878906 -25.617188 10.085938 -24.441406 10.296875 -23.265625 C 10.503906 -22.085938 10.726562 -20.894531 10.96875 -19.6875 L 12.265625 -13.40625 C 12.390625 -12.769531 12.476562 -12.128906 12.53125 -11.484375 C 12.582031 -10.847656 12.648438 -10.191406 12.734375 -9.515625 C 12.785156 -9.640625 12.828125 -9.734375 12.859375 -9.796875 C 12.898438 -9.867188 12.9375 -9.957031 12.96875 -10.0625 C 13.382812 -11.269531 13.789062 -12.472656 14.1875 -13.671875 C 14.582031 -14.878906 15 -16.085938 15.4375 -17.296875 C 15.65625 -17.890625 15.878906 -18.457031 16.109375 -19 C 16.347656 -19.539062 16.582031 -20.097656 16.8125 -20.671875 C 16.914062 -20.910156 17.113281 -21.117188 17.40625 -21.296875 C 17.613281 -21.429688 17.828125 -21.582031 18.046875 -21.75 C 18.273438 -21.914062 18.492188 -22.066406 18.703125 -22.203125 C 19.203125 -22.546875 19.625 -22.425781 19.96875 -21.84375 C 20.25 -21.375 20.441406 -20.882812 20.546875 -20.375 C 20.648438 -19.863281 20.742188 -19.347656 20.828125 -18.828125 L 21.734375 -13.25 C 21.835938 -12.664062 21.953125 -12.09375 22.078125 -11.53125 C 22.210938 -10.96875 22.347656 -10.398438 22.484375 -9.828125 C 22.503906 -9.742188 22.535156 -9.660156 22.578125 -9.578125 C 22.617188 -9.503906 22.664062 -9.40625 22.71875 -9.28125 C 22.789062 -9.75 22.863281 -10.175781 22.9375 -10.5625 C 23.019531 -10.957031 23.101562 -11.335938 23.1875 -11.703125 C 23.394531 -13.015625 23.554688 -14.316406 23.671875 -15.609375 C 23.796875 -16.910156 23.894531 -18.226562 23.96875 -19.5625 C 24.019531 -20.269531 24.109375 -20.972656 24.234375 -21.671875 C 24.367188 -22.367188 24.539062 -23.054688 24.75 -23.734375 C 25.039062 -24.859375 25.375 -25.953125 25.75 -27.015625 C 26.132812 -28.078125 26.523438 -29.160156 26.921875 -30.265625 C 27.128906 -30.835938 27.375 -31.382812 27.65625 -31.90625 C 27.945312 -32.425781 28.25 -32.9375 28.5625 -33.4375 C 28.78125 -33.726562 29.023438 -33.960938 29.296875 -34.140625 C 29.566406 -34.328125 29.847656 -34.523438 30.140625 -34.734375 C 30.398438 -34.472656 30.5625 -34.195312 30.625 -33.90625 C 30.695312 -33.625 30.757812 -33.335938 30.8125 -33.046875 C 30.988281 -31.941406 31.050781 -30.835938 31 -29.734375 C 30.945312 -28.640625 30.84375 -27.546875 30.6875 -26.453125 C 30.582031 -25.898438 30.5 -25.332031 30.4375 -24.75 C 30.375 -24.175781 30.273438 -23.613281 30.140625 -23.0625 L 29.3125 -19.5625 C 29.101562 -18.570312 28.828125 -17.601562 28.484375 -16.65625 C 28.148438 -15.71875 27.820312 -14.765625 27.5 -13.796875 C 27.113281 -12.585938 26.800781 -11.367188 26.5625 -10.140625 C 26.332031 -8.910156 26.109375 -7.664062 25.890625 -6.40625 L 25.109375 -1.375 C 25.054688 -1.007812 25.015625 -0.640625 24.984375 -0.265625 C 24.960938 0.0976562 24.925781 0.460938 24.875 0.828125 C 24.738281 0.847656 24.585938 0.867188 24.421875 0.890625 C 24.253906 0.921875 24.101562 0.910156 23.96875 0.859375 C 23.757812 0.753906 23.554688 0.707031 23.359375 0.71875 C 23.160156 0.738281 22.957031 0.722656 22.75 0.671875 C 22.625 0.671875 22.503906 0.648438 22.390625 0.609375 C 22.285156 0.566406 22.171875 0.519531 22.046875 0.46875 C 21.992188 0.445312 21.945312 0.421875 21.90625 0.390625 C 21.863281 0.367188 21.816406 0.359375 21.765625 0.359375 C 21.296875 0.410156 20.914062 0.289062 20.625 0 C 20.34375 -0.289062 20.125 -0.644531 19.96875 -1.0625 C 19.675781 -1.769531 19.40625 -2.476562 19.15625 -3.1875 C 18.90625 -3.894531 18.664062 -4.613281 18.4375 -5.34375 C 18.144531 -6.15625 17.945312 -6.941406 17.84375 -7.703125 C 17.707031 -8.359375 17.546875 -9.003906 17.359375 -9.640625 C 17.179688 -10.285156 17.015625 -10.9375 16.859375 -11.59375 C 16.804688 -11.75 16.769531 -11.914062 16.75 -12.09375 C 16.738281 -12.28125 16.722656 -12.46875 16.703125 -12.65625 C 16.671875 -12.65625 16.648438 -12.660156 16.640625 -12.671875 C 16.628906 -12.679688 16.609375 -12.6875 16.578125 -12.6875 Z M 27.984375 -28.6875 L 27.78125 -28.453125 L 26.953125 -25.5 L 26.875 -25 C 26.925781 -25 26.96875 -24.984375 27 -24.953125 L 27.9375 -28.71875 L 28.171875 -29.546875 C 28.097656 -29.546875 28.046875 -29.5625 28.015625 -29.59375 C 28.015625 -29.4375 28.007812 -29.285156 28 -29.140625 C 27.988281 -28.992188 27.984375 -28.84375 27.984375 -28.6875 Z M 27.984375 -28.6875 "/></g></g></g><g fill="#000000" fill-opacity="1"><g transform="translate(154.575997, 55.497519)"><g><path d="M 13.796875 -17.328125 C 13.109375 -17.273438 12.429688 -17.242188 11.765625 -17.234375 C 11.097656 -17.222656 10.410156 -17.203125 9.703125 -17.171875 C 9.703125 -16.929688 9.695312 -16.691406 9.6875 -16.453125 C 9.675781 -16.222656 9.65625 -15.992188 9.625 -15.765625 C 9.570312 -14.578125 9.515625 -13.382812 9.453125 -12.1875 C 9.390625 -11 9.316406 -9.816406 9.234375 -8.640625 C 9.210938 -8.328125 9.160156 -8.015625 9.078125 -7.703125 C 8.992188 -7.390625 8.925781 -7.078125 8.875 -6.765625 L 8.5625 -3.96875 C 8.457031 -3.414062 8.351562 -2.863281 8.25 -2.3125 C 8.144531 -1.769531 7.972656 -1.234375 7.734375 -0.703125 C 7.660156 -0.703125 7.582031 -0.707031 7.5 -0.71875 C 7.425781 -0.738281 7.347656 -0.734375 7.265625 -0.703125 C 6.953125 -0.648438 6.75 -0.660156 6.65625 -0.734375 C 6.5625 -0.816406 6.488281 -1.03125 6.4375 -1.375 C 6.4375 -1.425781 6.429688 -1.476562 6.421875 -1.53125 C 6.410156 -1.582031 6.40625 -1.675781 6.40625 -1.8125 C 6.351562 -1.601562 6.316406 -1.425781 6.296875 -1.28125 C 6.285156 -1.132812 6.253906 -0.992188 6.203125 -0.859375 C 6.128906 -0.859375 6.046875 -0.851562 5.953125 -0.84375 C 5.859375 -0.832031 5.785156 -0.835938 5.734375 -0.859375 L 4.984375 -1.171875 C 4.859375 -1.222656 4.722656 -1.234375 4.578125 -1.203125 C 4.429688 -1.179688 4.296875 -1.195312 4.171875 -1.25 C 4.003906 -1.3125 3.867188 -1.421875 3.765625 -1.578125 C 3.640625 -1.859375 3.5 -2.128906 3.34375 -2.390625 C 3.1875 -2.660156 3.066406 -2.9375 2.984375 -3.21875 C 2.828125 -3.90625 2.679688 -4.597656 2.546875 -5.296875 C 2.421875 -6.003906 2.289062 -6.703125 2.15625 -7.390625 C 2.082031 -7.753906 1.992188 -8.101562 1.890625 -8.4375 C 1.785156 -8.78125 1.707031 -9.140625 1.65625 -9.515625 L 1.21875 -12.5 C 1.164062 -12.832031 1.125 -13.171875 1.09375 -13.515625 C 1.070312 -13.859375 1.046875 -14.203125 1.015625 -14.546875 C 1.015625 -14.722656 1.019531 -14.898438 1.03125 -15.078125 C 1.050781 -15.265625 1.0625 -15.453125 1.0625 -15.640625 L 1.0625 -16.1875 C 0.957031 -16.5 0.90625 -16.851562 0.90625 -17.25 C 0.90625 -17.925781 0.910156 -18.613281 0.921875 -19.3125 C 0.929688 -20.007812 0.953125 -20.695312 0.984375 -21.375 C 0.984375 -21.738281 0.984375 -22.097656 0.984375 -22.453125 C 0.984375 -22.804688 0.992188 -23.164062 1.015625 -23.53125 L 1.015625 -23.625 C 1.203125 -24.144531 1.269531 -24.660156 1.21875 -25.171875 C 1.164062 -25.679688 1.191406 -26.195312 1.296875 -26.71875 C 1.429688 -27.425781 1.554688 -28.125 1.671875 -28.8125 C 1.785156 -29.507812 1.9375 -30.203125 2.125 -30.890625 C 2.226562 -31.304688 2.367188 -31.703125 2.546875 -32.078125 C 2.734375 -32.460938 2.921875 -32.835938 3.109375 -33.203125 C 3.179688 -33.359375 3.265625 -33.515625 3.359375 -33.671875 C 3.453125 -33.828125 3.523438 -34 3.578125 -34.1875 C 3.703125 -34.476562 3.898438 -34.664062 4.171875 -34.75 C 4.453125 -34.84375 4.710938 -34.96875 4.953125 -35.125 C 4.972656 -35.15625 5.007812 -35.160156 5.0625 -35.140625 C 5.113281 -35.128906 5.140625 -35.140625 5.140625 -35.171875 C 5.253906 -35.460938 5.421875 -35.648438 5.640625 -35.734375 C 5.859375 -35.828125 6.0625 -35.953125 6.25 -36.109375 C 6.5625 -36.367188 6.90625 -36.425781 7.28125 -36.28125 C 7.664062 -36.144531 7.910156 -35.878906 8.015625 -35.484375 C 8.117188 -35.140625 8.21875 -34.800781 8.3125 -34.46875 C 8.40625 -34.144531 8.476562 -33.816406 8.53125 -33.484375 C 8.65625 -32.796875 8.769531 -32.097656 8.875 -31.390625 C 8.976562 -30.691406 9.070312 -29.988281 9.15625 -29.28125 C 9.257812 -28.519531 9.335938 -27.765625 9.390625 -27.015625 C 9.441406 -26.265625 9.492188 -25.507812 9.546875 -24.75 C 9.597656 -23.96875 9.628906 -23.191406 9.640625 -22.421875 C 9.660156 -21.648438 9.679688 -20.867188 9.703125 -20.078125 L 9.703125 -19.5625 L 13.828125 -19.6875 C 13.910156 -20.050781 13.953125 -20.328125 13.953125 -20.515625 L 14.0625 -22.90625 C 14.0625 -23.113281 14.0625 -23.3125 14.0625 -23.5 C 14.0625 -23.6875 14.078125 -23.882812 14.109375 -24.09375 C 14.128906 -24.476562 14.160156 -24.875 14.203125 -25.28125 C 14.242188 -25.6875 14.273438 -26.101562 14.296875 -26.53125 C 14.328125 -26.707031 14.332031 -26.875 14.3125 -27.03125 C 14.300781 -27.1875 14.3125 -27.359375 14.34375 -27.546875 C 14.445312 -28.171875 14.535156 -28.789062 14.609375 -29.40625 C 14.691406 -30.03125 14.800781 -30.65625 14.9375 -31.28125 C 14.988281 -31.570312 15.039062 -31.851562 15.09375 -32.125 C 15.144531 -32.394531 15.222656 -32.664062 15.328125 -32.9375 L 16.15625 -34.78125 C 16.207031 -34.832031 16.25 -34.890625 16.28125 -34.953125 C 16.320312 -35.015625 16.367188 -35.0625 16.421875 -35.09375 C 16.785156 -35.21875 17.117188 -35.414062 17.421875 -35.6875 C 17.722656 -35.96875 18.0625 -36.175781 18.4375 -36.3125 C 18.800781 -36.257812 19.078125 -36.113281 19.265625 -35.875 C 19.460938 -35.644531 19.628906 -35.367188 19.765625 -35.046875 C 20.003906 -34.453125 20.1875 -33.859375 20.3125 -33.265625 C 20.445312 -32.671875 20.550781 -32.0625 20.625 -31.4375 C 20.726562 -30.539062 20.832031 -29.65625 20.9375 -28.78125 C 21.050781 -27.90625 21.132812 -27.019531 21.1875 -26.125 C 21.238281 -25 21.289062 -23.882812 21.34375 -22.78125 C 21.394531 -21.6875 21.429688 -20.578125 21.453125 -19.453125 C 21.484375 -18.222656 21.488281 -17 21.46875 -15.78125 C 21.457031 -14.5625 21.441406 -13.335938 21.421875 -12.109375 C 21.390625 -11.367188 21.34375 -10.640625 21.28125 -9.921875 C 21.21875 -9.203125 21.160156 -8.488281 21.109375 -7.78125 C 21.054688 -7.207031 21.019531 -6.628906 21 -6.046875 C 20.988281 -5.472656 20.96875 -4.898438 20.9375 -4.328125 C 20.882812 -3.796875 20.851562 -3.253906 20.84375 -2.703125 C 20.832031 -2.160156 20.800781 -1.625 20.75 -1.09375 C 20.75 -0.882812 20.722656 -0.679688 20.671875 -0.484375 C 20.617188 -0.296875 20.566406 -0.0820312 20.515625 0.15625 C 20.253906 0.0507812 19.988281 0.0351562 19.71875 0.109375 C 19.457031 0.191406 19.273438 0.0234375 19.171875 -0.390625 C 19.148438 -0.421875 19.140625 -0.4375 19.140625 -0.4375 L 19.0625 -0.046875 C 18.925781 -0.046875 18.800781 -0.046875 18.6875 -0.046875 C 18.570312 -0.046875 18.488281 -0.0546875 18.4375 -0.078125 C 18.25 -0.128906 18.066406 -0.175781 17.890625 -0.21875 C 17.722656 -0.257812 17.550781 -0.304688 17.375 -0.359375 C 16.976562 -0.460938 16.675781 -0.648438 16.46875 -0.921875 C 16.257812 -1.203125 16.101562 -1.523438 16 -1.890625 C 15.914062 -2.253906 15.847656 -2.625 15.796875 -3 C 15.742188 -3.382812 15.691406 -3.757812 15.640625 -4.125 L 15.640625 -4.25 L 15.171875 -6.71875 C 15.035156 -7.320312 14.898438 -7.90625 14.765625 -8.46875 C 14.640625 -9.03125 14.523438 -9.613281 14.421875 -10.21875 C 14.335938 -10.769531 14.269531 -11.316406 14.21875 -11.859375 C 14.164062 -12.410156 14.113281 -12.976562 14.0625 -13.5625 C 14.007812 -14.164062 13.960938 -14.78125 13.921875 -15.40625 C 13.890625 -16.03125 13.847656 -16.671875 13.796875 -17.328125 Z M 6.609375 -25.625 L 6.4375 -25.625 L 6.4375 -4.75 C 6.601562 -8.257812 6.703125 -11.738281 6.734375 -15.1875 C 6.773438 -18.632812 6.734375 -22.113281 6.609375 -25.625 Z M 18.703125 -25.03125 C 18.734375 -22.625 18.753906 -20.226562 18.765625 -17.84375 C 18.773438 -15.457031 18.804688 -13.0625 18.859375 -10.65625 C 18.941406 -13.0625 18.96875 -15.457031 18.9375 -17.84375 C 18.914062 -20.226562 18.835938 -22.625 18.703125 -25.03125 Z M 18.703125 -25.03125 "/></g></g></g><g fill="#000000" fill-opacity="1"><g transform="translate(177.329162, 55.497519)"><g><path d="M 18.9375 1.21875 C 18.78125 1.132812 18.609375 1.113281 18.421875 1.15625 C 18.242188 1.195312 18.078125 1.191406 17.921875 1.140625 C 17.765625 1.085938 17.644531 0.914062 17.5625 0.625 C 17.507812 0.726562 17.476562 0.804688 17.46875 0.859375 C 17.457031 0.910156 17.425781 0.988281 17.375 1.09375 C 17.1875 1.039062 17.015625 0.992188 16.859375 0.953125 C 16.703125 0.921875 16.546875 0.878906 16.390625 0.828125 C 16.234375 0.742188 16.101562 0.71875 16 0.75 C 15.46875 0.769531 15.097656 0.519531 14.890625 0 C 14.765625 -0.445312 14.640625 -0.90625 14.515625 -1.375 C 14.398438 -1.84375 14.273438 -2.300781 14.140625 -2.75 L 13.515625 -5.140625 L 12.96875 -7.90625 C 12.882812 -7.90625 12.800781 -7.910156 12.71875 -7.921875 C 12.644531 -7.929688 12.570312 -7.9375 12.5 -7.9375 L 9 -8.09375 C 8.789062 -8.09375 8.644531 -8.066406 8.5625 -8.015625 C 8.488281 -7.960938 8.425781 -7.832031 8.375 -7.625 L 8.0625 -6.5625 C 8.03125 -6.476562 7.992188 -6.394531 7.953125 -6.3125 C 7.921875 -6.238281 7.90625 -6.164062 7.90625 -6.09375 C 7.90625 -5.726562 7.832031 -5.378906 7.6875 -5.046875 C 7.539062 -4.722656 7.398438 -4.390625 7.265625 -4.046875 L 7.109375 -3.578125 C 6.984375 -3.078125 6.847656 -2.601562 6.703125 -2.15625 C 6.554688 -1.71875 6.351562 -1.273438 6.09375 -0.828125 C 5.882812 -0.515625 5.632812 -0.382812 5.34375 -0.4375 C 5.132812 -0.457031 4.9375 -0.453125 4.75 -0.421875 C 4.570312 -0.398438 4.414062 -0.492188 4.28125 -0.703125 C 3.8125 -0.492188 3.367188 -0.546875 2.953125 -0.859375 C 2.796875 -0.910156 2.71875 -0.9375 2.71875 -0.9375 C 1.976562 -0.863281 1.53125 -1.15625 1.375 -1.8125 L 1.0625 -4.203125 C 1.007812 -4.597656 0.960938 -4.988281 0.921875 -5.375 C 0.878906 -5.769531 0.832031 -6.164062 0.78125 -6.5625 L 0.78125 -7.65625 C 0.78125 -7.976562 0.769531 -8.175781 0.75 -8.25 C 0.613281 -8.882812 0.539062 -9.507812 0.53125 -10.125 C 0.519531 -10.738281 0.539062 -11.359375 0.59375 -11.984375 C 0.613281 -12.378906 0.671875 -12.765625 0.765625 -13.140625 C 0.859375 -13.523438 0.941406 -13.910156 1.015625 -14.296875 C 1.097656 -14.742188 1.175781 -15.179688 1.25 -15.609375 C 1.332031 -16.046875 1.425781 -16.488281 1.53125 -16.9375 L 2.75 -21.84375 L 3.8125 -25.8125 L 4.90625 -29.4375 C 5.007812 -29.769531 5.101562 -30.109375 5.1875 -30.453125 C 5.269531 -30.796875 5.375 -31.125 5.5 -31.4375 C 5.707031 -31.9375 5.898438 -32.441406 6.078125 -32.953125 C 6.265625 -33.460938 6.519531 -33.941406 6.84375 -34.390625 L 6.953125 -34.546875 C 7.210938 -35.015625 7.394531 -35.3125 7.5 -35.4375 C 7.601562 -35.570312 7.851562 -35.734375 8.25 -35.921875 C 8.300781 -35.972656 8.347656 -36 8.390625 -36 C 8.429688 -36 8.476562 -36.023438 8.53125 -36.078125 C 8.550781 -36.097656 8.570312 -36.117188 8.59375 -36.140625 C 8.625 -36.171875 8.65625 -36.210938 8.6875 -36.265625 L 8.921875 -36 L 9.03125 -36.078125 L 9.203125 -36.421875 C 9.304688 -36.523438 9.390625 -36.625 9.453125 -36.71875 C 9.515625 -36.8125 9.648438 -36.882812 9.859375 -36.9375 C 10.046875 -36.988281 10.21875 -37.09375 10.375 -37.25 C 10.53125 -37.40625 10.703125 -37.550781 10.890625 -37.6875 C 11.359375 -37.289062 11.671875 -36.804688 11.828125 -36.234375 L 12.0625 -36.265625 C 12.40625 -36.472656 12.617188 -36.570312 12.703125 -36.5625 C 12.796875 -36.550781 12.988281 -36.363281 13.28125 -36 C 13.382812 -35.863281 13.472656 -35.703125 13.546875 -35.515625 C 13.628906 -35.335938 13.695312 -35.171875 13.75 -35.015625 C 14.09375 -34.046875 14.390625 -33.0625 14.640625 -32.0625 C 14.890625 -31.070312 15.078125 -30.050781 15.203125 -29 C 15.359375 -27.738281 15.492188 -26.472656 15.609375 -25.203125 C 15.734375 -23.929688 15.863281 -22.671875 16 -21.421875 C 16.125 -20.421875 16.265625 -19.441406 16.421875 -18.484375 C 16.578125 -17.535156 16.722656 -16.5625 16.859375 -15.5625 C 16.992188 -14.613281 17.128906 -13.660156 17.265625 -12.703125 C 17.410156 -11.753906 17.5625 -10.804688 17.71875 -9.859375 L 18.546875 -4.796875 C 18.648438 -4.003906 18.734375 -3.207031 18.796875 -2.40625 C 18.867188 -1.613281 18.929688 -0.828125 18.984375 -0.046875 C 19.003906 0.171875 19 0.375 18.96875 0.5625 C 18.945312 0.757812 18.9375 0.976562 18.9375 1.21875 Z M 9.4375 -11.390625 L 12.453125 -11.390625 C 12.273438 -12.703125 12.09375 -13.992188 11.90625 -15.265625 C 11.71875 -16.535156 11.519531 -17.8125 11.3125 -19.09375 C 11.257812 -18.96875 11.207031 -18.863281 11.15625 -18.78125 C 11.101562 -18.707031 11.066406 -18.617188 11.046875 -18.515625 C 10.992188 -18.035156 10.921875 -17.570312 10.828125 -17.125 C 10.734375 -16.6875 10.582031 -16.242188 10.375 -15.796875 L 10.328125 -15.5625 C 10.273438 -15.320312 10.226562 -15.09375 10.1875 -14.875 C 10.15625 -14.65625 10.113281 -14.4375 10.0625 -14.21875 C 10.007812 -13.988281 9.929688 -13.757812 9.828125 -13.53125 C 9.722656 -13.3125 9.644531 -13.097656 9.59375 -12.890625 C 9.539062 -12.648438 9.503906 -12.40625 9.484375 -12.15625 C 9.472656 -11.90625 9.457031 -11.648438 9.4375 -11.390625 Z M 9.4375 -11.390625 "/></g></g></g><g fill="#000000" fill-opacity="1"><g transform="translate(197.606586, 55.497519)"><g><path d="M 21.734375 -30.0625 C 21.148438 -30.113281 20.597656 -30.160156 20.078125 -30.203125 C 19.554688 -30.242188 19.046875 -30.25 18.546875 -30.21875 C 18.023438 -30.164062 17.507812 -30.097656 17 -30.015625 C 16.488281 -29.941406 15.957031 -29.863281 15.40625 -29.78125 L 15.484375 -28.640625 C 15.609375 -26.960938 15.640625 -25.289062 15.578125 -23.625 C 15.515625 -21.96875 15.457031 -20.300781 15.40625 -18.625 C 15.375 -17.632812 15.367188 -16.644531 15.390625 -15.65625 C 15.421875 -14.675781 15.425781 -13.6875 15.40625 -12.6875 C 15.375 -11.820312 15.34375 -10.953125 15.3125 -10.078125 C 15.289062 -9.203125 15.253906 -8.316406 15.203125 -7.421875 C 15.148438 -6.710938 15.082031 -6 15 -5.28125 C 14.925781 -4.5625 14.785156 -3.863281 14.578125 -3.1875 C 14.523438 -2.976562 14.457031 -2.78125 14.375 -2.59375 C 14.300781 -2.40625 14.238281 -2.207031 14.1875 -2 C 14.082031 -1.5 13.976562 -1.015625 13.875 -0.546875 C 13.769531 -0.078125 13.648438 0.414062 13.515625 0.9375 C 13.410156 0.8125 13.28125 0.765625 13.125 0.796875 C 12.96875 0.835938 12.8125 0.863281 12.65625 0.875 C 12.5 0.894531 12.367188 0.800781 12.265625 0.59375 C 12.179688 0.59375 12.128906 0.601562 12.109375 0.625 C 11.816406 0.757812 11.539062 0.753906 11.28125 0.609375 C 11.019531 0.460938 10.742188 0.378906 10.453125 0.359375 C 9.796875 0.273438 9.378906 -0.09375 9.203125 -0.75 C 9.117188 -1.0625 9.003906 -1.367188 8.859375 -1.671875 C 8.710938 -1.972656 8.5625 -2.265625 8.40625 -2.546875 C 8.125 -3.128906 7.863281 -3.710938 7.625 -4.296875 C 7.382812 -4.890625 7.203125 -5.5 7.078125 -6.125 C 6.941406 -6.570312 6.851562 -7.003906 6.8125 -7.421875 C 6.78125 -7.847656 6.738281 -8.28125 6.6875 -8.71875 C 6.65625 -9.039062 6.632812 -9.363281 6.625 -9.6875 C 6.613281 -10.007812 6.609375 -10.34375 6.609375 -10.6875 L 6.609375 -14.21875 C 6.578125 -14.613281 6.546875 -15.007812 6.515625 -15.40625 C 6.492188 -15.800781 6.492188 -16.179688 6.515625 -16.546875 C 6.546875 -17.222656 6.582031 -17.890625 6.625 -18.546875 C 6.664062 -19.203125 6.710938 -19.867188 6.765625 -20.546875 C 6.785156 -20.804688 6.796875 -21.066406 6.796875 -21.328125 C 6.796875 -21.597656 6.796875 -21.863281 6.796875 -22.125 C 6.828125 -22.414062 6.832031 -22.71875 6.8125 -23.03125 C 6.800781 -23.34375 6.796875 -23.65625 6.796875 -23.96875 C 6.828125 -24.601562 6.882812 -25.226562 6.96875 -25.84375 C 7.0625 -26.457031 7.238281 -27.066406 7.5 -27.671875 C 7.601562 -27.898438 7.679688 -28.148438 7.734375 -28.421875 C 7.785156 -28.703125 7.851562 -29 7.9375 -29.3125 L 5.625 -29.4375 C 4.863281 -29.457031 4.113281 -29.503906 3.375 -29.578125 C 2.644531 -29.660156 1.925781 -29.820312 1.21875 -30.0625 C 0.90625 -30.164062 0.726562 -30.265625 0.6875 -30.359375 C 0.644531 -30.453125 0.703125 -30.640625 0.859375 -30.921875 C 1.015625 -31.179688 1.195312 -31.390625 1.40625 -31.546875 C 1.625 -31.710938 1.863281 -31.875 2.125 -32.03125 C 2.726562 -32.46875 3.367188 -32.757812 4.046875 -32.90625 C 4.722656 -33.050781 5.429688 -33.125 6.171875 -33.125 C 7.742188 -33.070312 9.34375 -33.070312 10.96875 -33.125 C 11.351562 -33.15625 11.75 -33.171875 12.15625 -33.171875 C 12.5625 -33.171875 12.960938 -33.25 13.359375 -33.40625 C 13.460938 -33.457031 13.546875 -33.46875 13.609375 -33.4375 C 13.679688 -33.414062 13.753906 -33.390625 13.828125 -33.359375 C 14.222656 -33.253906 14.628906 -33.203125 15.046875 -33.203125 C 15.859375 -33.203125 16.65625 -33.171875 17.4375 -33.109375 C 18.226562 -33.046875 19.019531 -32.921875 19.8125 -32.734375 C 20.144531 -32.679688 20.4375 -32.566406 20.6875 -32.390625 C 20.9375 -32.222656 21.207031 -32.050781 21.5 -31.875 C 21.601562 -31.769531 21.65625 -31.648438 21.65625 -31.515625 C 21.675781 -31.304688 21.691406 -31.082031 21.703125 -30.84375 C 21.722656 -30.613281 21.734375 -30.351562 21.734375 -30.0625 Z M 12.421875 -23.703125 L 12.421875 -19.53125 L 12.53125 -19.53125 C 12.53125 -20.238281 12.535156 -20.9375 12.546875 -21.625 C 12.566406 -22.320312 12.585938 -23.015625 12.609375 -23.703125 Z M 12.296875 -9.546875 L 12.21875 -5.3125 L 12.34375 -5.3125 C 12.34375 -6.007812 12.347656 -6.710938 12.359375 -7.421875 C 12.367188 -8.128906 12.375 -8.835938 12.375 -9.546875 Z M 12.296875 -9.546875 "/></g></g></g><g fill="#000000" fill-opacity="1"><g transform="translate(220.045365, 55.497519)"><g/></g></g><g fill="#000000" fill-opacity="1"><g transform="translate(230.655649, 55.497519)"><g><path d="M 10.40625 -4.5625 L 12.6875 -4.4375 C 13.5 -4.4375 13.945312 -4.054688 14.03125 -3.296875 C 14.082031 -2.984375 14.109375 -2.671875 14.109375 -2.359375 C 14.109375 -2.046875 14.117188 -1.734375 14.140625 -1.421875 C 14.171875 -1.097656 14.039062 -0.898438 13.75 -0.828125 C 13.570312 -0.722656 13.40625 -0.671875 13.25 -0.671875 C 12.800781 -0.617188 12.335938 -0.566406 11.859375 -0.515625 C 11.390625 -0.460938 10.9375 -0.394531 10.5 -0.3125 C 10.050781 -0.257812 9.609375 -0.1875 9.171875 -0.09375 C 8.742188 0 8.304688 0.0820312 7.859375 0.15625 C 7.179688 0.257812 6.492188 0.367188 5.796875 0.484375 C 5.097656 0.609375 4.382812 0.601562 3.65625 0.46875 C 3.15625 0.394531 2.65625 0.3125 2.15625 0.21875 C 1.664062 0.125 1.15625 0.0234375 0.625 -0.078125 C 0.0195312 -0.234375 -0.09375 -0.570312 0.28125 -1.09375 C 0.332031 -1.226562 0.390625 -1.347656 0.453125 -1.453125 C 0.515625 -1.554688 0.585938 -1.675781 0.671875 -1.8125 C 0.722656 -1.882812 0.78125 -1.96875 0.84375 -2.0625 C 0.90625 -2.15625 0.976562 -2.226562 1.0625 -2.28125 L 3.140625 -3.53125 C 3.378906 -3.664062 3.625 -3.769531 3.875 -3.84375 C 4.125 -3.925781 4.378906 -4.019531 4.640625 -4.125 C 4.640625 -4.414062 4.628906 -4.71875 4.609375 -5.03125 C 4.597656 -5.34375 4.582031 -5.65625 4.5625 -5.96875 L 4.203125 -12.84375 C 4.179688 -13.320312 4.175781 -13.789062 4.1875 -14.25 C 4.195312 -14.707031 4.203125 -15.15625 4.203125 -15.59375 L 4.046875 -17.015625 C 4.023438 -17.566406 4 -18.109375 3.96875 -18.640625 C 3.9375 -19.179688 3.9375 -19.710938 3.96875 -20.234375 C 3.96875 -21.148438 3.976562 -22.0625 4 -22.96875 C 4.03125 -23.875 4.070312 -24.785156 4.125 -25.703125 L 4.4375 -29.359375 L 4.828125 -31.125 L 4.90625 -31.515625 L 4.25 -31.515625 C 3.488281 -31.460938 2.742188 -31.5 2.015625 -31.625 C 1.296875 -31.757812 0.582031 -31.921875 -0.125 -32.109375 C -0.59375 -32.234375 -0.695312 -32.519531 -0.4375 -32.96875 C -0.300781 -33.226562 -0.148438 -33.460938 0.015625 -33.671875 C 0.191406 -33.878906 0.421875 -34.039062 0.703125 -34.15625 C 0.835938 -34.207031 0.941406 -34.269531 1.015625 -34.34375 C 1.097656 -34.425781 1.191406 -34.503906 1.296875 -34.578125 C 1.816406 -34.921875 2.382812 -35.148438 3 -35.265625 C 3.613281 -35.390625 4.222656 -35.476562 4.828125 -35.53125 C 5.671875 -35.65625 6.507812 -35.734375 7.34375 -35.765625 C 8.1875 -35.816406 9.003906 -35.84375 9.796875 -35.84375 C 10.597656 -35.84375 11.421875 -35.800781 12.265625 -35.71875 C 12.546875 -35.664062 12.722656 -35.597656 12.796875 -35.515625 C 12.878906 -35.441406 12.9375 -35.257812 12.96875 -34.96875 C 12.988281 -34.757812 13.007812 -34.5625 13.03125 -34.375 C 13.0625 -34.195312 13.078125 -34.003906 13.078125 -33.796875 C 13.078125 -33.484375 13.03125 -33.265625 12.9375 -33.140625 C 12.851562 -33.023438 12.65625 -32.914062 12.34375 -32.8125 C 12.132812 -32.726562 11.910156 -32.660156 11.671875 -32.609375 C 11.429688 -32.554688 11.195312 -32.503906 10.96875 -32.453125 C 10.78125 -32.398438 10.59375 -32.367188 10.40625 -32.359375 C 10.226562 -32.347656 10.035156 -32.316406 9.828125 -32.265625 C 9.847656 -32.179688 9.859375 -32 9.859375 -31.71875 C 10.046875 -30.269531 10.195312 -28.832031 10.3125 -27.40625 C 10.4375 -25.976562 10.5 -24.53125 10.5 -23.0625 C 10.5 -21.988281 10.507812 -20.921875 10.53125 -19.859375 C 10.5625 -18.796875 10.578125 -17.71875 10.578125 -16.625 C 10.578125 -15.101562 10.5625 -13.582031 10.53125 -12.0625 C 10.507812 -10.539062 10.484375 -9.019531 10.453125 -7.5 C 10.453125 -7.113281 10.441406 -6.726562 10.421875 -6.34375 C 10.410156 -5.96875 10.394531 -5.582031 10.375 -5.1875 C 10.375 -5.082031 10.375 -4.976562 10.375 -4.875 C 10.375 -4.769531 10.382812 -4.664062 10.40625 -4.5625 Z M 8.328125 -8.40625 L 8.328125 -21.734375 L 8.296875 -21.734375 L 8.296875 -8.40625 Z M 8.171875 -26.046875 L 8.171875 -24.484375 L 8.21875 -24.484375 L 8.21875 -26.046875 Z M 8.171875 -26.046875 "/></g></g></g><g fill="#000000" fill-opacity="1"><g transform="translate(245.82442, 55.497519)"><g><path d="M 14.21875 -27.3125 L 12.8125 -27.671875 C 12.519531 -27.773438 12.242188 -27.816406 11.984375 -27.796875 C 11.722656 -27.785156 11.460938 -27.675781 11.203125 -27.46875 C 11.066406 -27.363281 10.90625 -27.285156 10.71875 -27.234375 C 10.539062 -27.179688 10.375 -27.113281 10.21875 -27.03125 C 10.082031 -26.976562 9.957031 -26.925781 9.84375 -26.875 C 9.726562 -26.820312 9.65625 -26.707031 9.625 -26.53125 C 9.601562 -26.445312 9.554688 -26.375 9.484375 -26.3125 C 9.421875 -26.25 9.363281 -26.1875 9.3125 -26.125 L 8.921875 -25.703125 C 9.023438 -25.492188 9.132812 -25.289062 9.25 -25.09375 C 9.375 -24.894531 9.523438 -24.703125 9.703125 -24.515625 C 10.097656 -24.148438 10.507812 -23.800781 10.9375 -23.46875 C 11.375 -23.144531 11.789062 -22.800781 12.1875 -22.4375 C 12.257812 -22.382812 12.347656 -22.335938 12.453125 -22.296875 C 12.554688 -22.253906 12.648438 -22.207031 12.734375 -22.15625 C 12.804688 -22.082031 12.84375 -22.054688 12.84375 -22.078125 C 13.113281 -21.847656 13.390625 -21.644531 13.671875 -21.46875 C 13.960938 -21.300781 14.238281 -21.097656 14.5 -20.859375 C 14.738281 -20.648438 14.96875 -20.441406 15.1875 -20.234375 C 15.40625 -20.023438 15.625 -19.800781 15.84375 -19.5625 C 16.207031 -19.175781 16.523438 -18.757812 16.796875 -18.3125 C 17.078125 -17.863281 17.28125 -17.363281 17.40625 -16.8125 C 17.769531 -15.082031 17.910156 -13.351562 17.828125 -11.625 C 17.753906 -9.894531 17.535156 -8.164062 17.171875 -6.4375 C 17.148438 -6.257812 17.101562 -6.082031 17.03125 -5.90625 C 16.96875 -5.738281 16.894531 -5.578125 16.8125 -5.421875 C 16.582031 -4.921875 16.34375 -4.425781 16.09375 -3.9375 C 15.84375 -3.457031 15.5625 -2.992188 15.25 -2.546875 L 15.171875 -2.4375 C 14.804688 -2.144531 14.445312 -1.851562 14.09375 -1.5625 C 13.738281 -1.28125 13.320312 -1.070312 12.84375 -0.9375 C 12.789062 -0.9375 12.753906 -0.953125 12.734375 -0.984375 C 12.703125 -0.984375 12.675781 -0.992188 12.65625 -1.015625 L 11.671875 -0.671875 C 11.410156 -0.566406 11.140625 -0.519531 10.859375 -0.53125 C 10.585938 -0.539062 10.332031 -0.46875 10.09375 -0.3125 L 10.015625 -0.3125 C 9.410156 -0.34375 8.8125 -0.347656 8.21875 -0.328125 C 7.632812 -0.316406 7.039062 -0.414062 6.4375 -0.625 C 6.019531 -0.757812 5.609375 -0.894531 5.203125 -1.03125 C 4.796875 -1.175781 4.382812 -1.332031 3.96875 -1.5 C 3.445312 -1.707031 2.988281 -1.96875 2.59375 -2.28125 C 2.195312 -2.59375 1.882812 -3.007812 1.65625 -3.53125 C 1.445312 -3.976562 1.304688 -4.429688 1.234375 -4.890625 C 1.171875 -5.347656 1.148438 -5.8125 1.171875 -6.28125 C 1.171875 -6.78125 1.164062 -7.269531 1.15625 -7.75 C 1.144531 -8.238281 1.148438 -8.722656 1.171875 -9.203125 C 1.203125 -9.773438 1.304688 -10.316406 1.484375 -10.828125 C 1.671875 -11.335938 1.910156 -11.828125 2.203125 -12.296875 C 2.804688 -13.296875 3.578125 -13.882812 4.515625 -14.0625 C 4.617188 -13.832031 4.664062 -13.5 4.65625 -13.0625 C 4.644531 -12.632812 4.5625 -12.273438 4.40625 -11.984375 C 4.25 -11.671875 4.148438 -11.359375 4.109375 -11.046875 C 4.066406 -10.734375 4.0625 -10.390625 4.09375 -10.015625 C 4.195312 -8.785156 4.570312 -7.6875 5.21875 -6.71875 C 5.539062 -6.269531 5.894531 -5.875 6.28125 -5.53125 C 6.675781 -5.195312 7.148438 -5.003906 7.703125 -4.953125 C 8.015625 -4.898438 8.332031 -4.882812 8.65625 -4.90625 C 8.988281 -4.9375 9.3125 -4.976562 9.625 -5.03125 C 9.882812 -5.050781 10.09375 -5.257812 10.25 -5.65625 C 10.4375 -6.125 10.578125 -6.597656 10.671875 -7.078125 C 10.765625 -7.566406 10.742188 -8.078125 10.609375 -8.609375 L 10.609375 -8.921875 C 10.640625 -9.472656 10.582031 -9.992188 10.4375 -10.484375 C 10.289062 -10.984375 10.125 -11.484375 9.9375 -11.984375 C 9.882812 -12.140625 9.835938 -12.296875 9.796875 -12.453125 C 9.765625 -12.609375 9.722656 -12.765625 9.671875 -12.921875 C 9.535156 -13.609375 9.285156 -14.226562 8.921875 -14.78125 C 8.785156 -14.9375 8.644531 -15.078125 8.5 -15.203125 C 8.363281 -15.335938 8.21875 -15.46875 8.0625 -15.59375 C 7.613281 -15.914062 7.164062 -16.234375 6.71875 -16.546875 C 6.269531 -16.859375 5.8125 -17.160156 5.34375 -17.453125 C 4.945312 -17.679688 4.546875 -17.914062 4.140625 -18.15625 C 3.734375 -18.394531 3.375 -18.679688 3.0625 -19.015625 C 2.78125 -19.304688 2.503906 -19.609375 2.234375 -19.921875 C 1.972656 -20.234375 1.765625 -20.570312 1.609375 -20.9375 C 1.429688 -21.363281 1.296875 -21.796875 1.203125 -22.234375 C 1.109375 -22.679688 1.085938 -23.171875 1.140625 -23.703125 C 1.191406 -24.191406 1.273438 -24.671875 1.390625 -25.140625 C 1.515625 -25.617188 1.65625 -26.09375 1.8125 -26.5625 C 1.9375 -26.957031 2.109375 -27.316406 2.328125 -27.640625 C 2.554688 -27.972656 2.773438 -28.304688 2.984375 -28.640625 C 3.191406 -29.015625 3.425781 -29.359375 3.6875 -29.671875 C 3.957031 -29.984375 4.222656 -30.3125 4.484375 -30.65625 C 4.847656 -31.144531 5.269531 -31.535156 5.75 -31.828125 C 6.238281 -32.117188 6.757812 -32.367188 7.3125 -32.578125 L 8.765625 -33.171875 C 9.128906 -33.328125 9.5 -33.488281 9.875 -33.65625 C 10.257812 -33.820312 10.632812 -33.972656 11 -34.109375 C 11.394531 -34.242188 11.785156 -34.316406 12.171875 -34.328125 C 12.566406 -34.335938 12.953125 -34.210938 13.328125 -33.953125 C 13.484375 -33.816406 13.625 -33.671875 13.75 -33.515625 L 14.546875 -31.90625 C 14.617188 -31.726562 14.65625 -31.53125 14.65625 -31.3125 C 14.789062 -30.113281 14.710938 -28.898438 14.421875 -27.671875 C 14.390625 -27.554688 14.320312 -27.4375 14.21875 -27.3125 Z M 14.21875 -27.3125 "/></g></g></g><g fill="#000000" fill-opacity="1"><g transform="translate(264.529958, 55.497519)"><g/></g></g><g fill="#000000" fill-opacity="1"><g transform="translate(275.140242, 55.497519)"><g><path d="M 18.9375 1.21875 C 18.78125 1.132812 18.609375 1.113281 18.421875 1.15625 C 18.242188 1.195312 18.078125 1.191406 17.921875 1.140625 C 17.765625 1.085938 17.644531 0.914062 17.5625 0.625 C 17.507812 0.726562 17.476562 0.804688 17.46875 0.859375 C 17.457031 0.910156 17.425781 0.988281 17.375 1.09375 C 17.1875 1.039062 17.015625 0.992188 16.859375 0.953125 C 16.703125 0.921875 16.546875 0.878906 16.390625 0.828125 C 16.234375 0.742188 16.101562 0.71875 16 0.75 C 15.46875 0.769531 15.097656 0.519531 14.890625 0 C 14.765625 -0.445312 14.640625 -0.90625 14.515625 -1.375 C 14.398438 -1.84375 14.273438 -2.300781 14.140625 -2.75 L 13.515625 -5.140625 L 12.96875 -7.90625 C 12.882812 -7.90625 12.800781 -7.910156 12.71875 -7.921875 C 12.644531 -7.929688 12.570312 -7.9375 12.5 -7.9375 L 9 -8.09375 C 8.789062 -8.09375 8.644531 -8.066406 8.5625 -8.015625 C 8.488281 -7.960938 8.425781 -7.832031 8.375 -7.625 L 8.0625 -6.5625 C 8.03125 -6.476562 7.992188 -6.394531 7.953125 -6.3125 C 7.921875 -6.238281 7.90625 -6.164062 7.90625 -6.09375 C 7.90625 -5.726562 7.832031 -5.378906 7.6875 -5.046875 C 7.539062 -4.722656 7.398438 -4.390625 7.265625 -4.046875 L 7.109375 -3.578125 C 6.984375 -3.078125 6.847656 -2.601562 6.703125 -2.15625 C 6.554688 -1.71875 6.351562 -1.273438 6.09375 -0.828125 C 5.882812 -0.515625 5.632812 -0.382812 5.34375 -0.4375 C 5.132812 -0.457031 4.9375 -0.453125 4.75 -0.421875 C 4.570312 -0.398438 4.414062 -0.492188 4.28125 -0.703125 C 3.8125 -0.492188 3.367188 -0.546875 2.953125 -0.859375 C 2.796875 -0.910156 2.71875 -0.9375 2.71875 -0.9375 C 1.976562 -0.863281 1.53125 -1.15625 1.375 -1.8125 L 1.0625 -4.203125 C 1.007812 -4.597656 0.960938 -4.988281 0.921875 -5.375 C 0.878906 -5.769531 0.832031 -6.164062 0.78125 -6.5625 L 0.78125 -7.65625 C 0.78125 -7.976562 0.769531 -8.175781 0.75 -8.25 C 0.613281 -8.882812 0.539062 -9.507812 0.53125 -10.125 C 0.519531 -10.738281 0.539062 -11.359375 0.59375 -11.984375 C 0.613281 -12.378906 0.671875 -12.765625 0.765625 -13.140625 C 0.859375 -13.523438 0.941406 -13.910156 1.015625 -14.296875 C 1.097656 -14.742188 1.175781 -15.179688 1.25 -15.609375 C 1.332031 -16.046875 1.425781 -16.488281 1.53125 -16.9375 L 2.75 -21.84375 L 3.8125 -25.8125 L 4.90625 -29.4375 C 5.007812 -29.769531 5.101562 -30.109375 5.1875 -30.453125 C 5.269531 -30.796875 5.375 -31.125 5.5 -31.4375 C 5.707031 -31.9375 5.898438 -32.441406 6.078125 -32.953125 C 6.265625 -33.460938 6.519531 -33.941406 6.84375 -34.390625 L 6.953125 -34.546875 C 7.210938 -35.015625 7.394531 -35.3125 7.5 -35.4375 C 7.601562 -35.570312 7.851562 -35.734375 8.25 -35.921875 C 8.300781 -35.972656 8.347656 -36 8.390625 -36 C 8.429688 -36 8.476562 -36.023438 8.53125 -36.078125 C 8.550781 -36.097656 8.570312 -36.117188 8.59375 -36.140625 C 8.625 -36.171875 8.65625 -36.210938 8.6875 -36.265625 L 8.921875 -36 L 9.03125 -36.078125 L 9.203125 -36.421875 C 9.304688 -36.523438 9.390625 -36.625 9.453125 -36.71875 C 9.515625 -36.8125 9.648438 -36.882812 9.859375 -36.9375 C 10.046875 -36.988281 10.21875 -37.09375 10.375 -37.25 C 10.53125 -37.40625 10.703125 -37.550781 10.890625 -37.6875 C 11.359375 -37.289062 11.671875 -36.804688 11.828125 -36.234375 L 12.0625 -36.265625 C 12.40625 -36.472656 12.617188 -36.570312 12.703125 -36.5625 C 12.796875 -36.550781 12.988281 -36.363281 13.28125 -36 C 13.382812 -35.863281 13.472656 -35.703125 13.546875 -35.515625 C 13.628906 -35.335938 13.695312 -35.171875 13.75 -35.015625 C 14.09375 -34.046875 14.390625 -33.0625 14.640625 -32.0625 C 14.890625 -31.070312 15.078125 -30.050781 15.203125 -29 C 15.359375 -27.738281 15.492188 -26.472656 15.609375 -25.203125 C 15.734375 -23.929688 15.863281 -22.671875 16 -21.421875 C 16.125 -20.421875 16.265625 -19.441406 16.421875 -18.484375 C 16.578125 -17.535156 16.722656 -16.5625 16.859375 -15.5625 C 16.992188 -14.613281 17.128906 -13.660156 17.265625 -12.703125 C 17.410156 -11.753906 17.5625 -10.804688 17.71875 -9.859375 L 18.546875 -4.796875 C 18.648438 -4.003906 18.734375 -3.207031 18.796875 -2.40625 C 18.867188 -1.613281 18.929688 -0.828125 18.984375 -0.046875 C 19.003906 0.171875 19 0.375 18.96875 0.5625 C 18.945312 0.757812 18.9375 0.976562 18.9375 1.21875 Z M 9.4375 -11.390625 L 12.453125 -11.390625 C 12.273438 -12.703125 12.09375 -13.992188 11.90625 -15.265625 C 11.71875 -16.535156 11.519531 -17.8125 11.3125 -19.09375 C 11.257812 -18.96875 11.207031 -18.863281 11.15625 -18.78125 C 11.101562 -18.707031 11.066406 -18.617188 11.046875 -18.515625 C 10.992188 -18.035156 10.921875 -17.570312 10.828125 -17.125 C 10.734375 -16.6875 10.582031 -16.242188 10.375 -15.796875 L 10.328125 -15.5625 C 10.273438 -15.320312 10.226562 -15.09375 10.1875 -14.875 C 10.15625 -14.65625 10.113281 -14.4375 10.0625 -14.21875 C 10.007812 -13.988281 9.929688 -13.757812 9.828125 -13.53125 C 9.722656 -13.3125 9.644531 -13.097656 9.59375 -12.890625 C 9.539062 -12.648438 9.503906 -12.40625 9.484375 -12.15625 C 9.472656 -11.90625 9.457031 -11.648438 9.4375 -11.390625 Z M 9.4375 -11.390625 "/></g></g></g><g fill="#000000" fill-opacity="1"><g transform="translate(295.417666, 55.497519)"><g><path d="M 14.375 -17.453125 C 14.59375 -17.023438 14.8125 -16.617188 15.03125 -16.234375 C 15.25 -15.859375 15.453125 -15.488281 15.640625 -15.125 C 15.878906 -14.570312 16.101562 -14.019531 16.3125 -13.46875 C 16.519531 -12.925781 16.726562 -12.378906 16.9375 -11.828125 C 17.25 -10.960938 17.5625 -10.097656 17.875 -9.234375 C 18.195312 -8.367188 18.5 -7.503906 18.78125 -6.640625 C 18.988281 -6.117188 19.171875 -5.601562 19.328125 -5.09375 C 19.484375 -4.582031 19.65625 -4.0625 19.84375 -3.53125 C 20.101562 -2.71875 20.179688 -1.878906 20.078125 -1.015625 C 19.867188 -0.890625 19.664062 -0.859375 19.46875 -0.921875 C 19.269531 -0.984375 19.066406 -1.015625 18.859375 -1.015625 C 17.734375 -1.097656 16.910156 -1.597656 16.390625 -2.515625 C 16.023438 -3.066406 15.65625 -3.609375 15.28125 -4.140625 C 14.914062 -4.679688 14.5625 -5.238281 14.21875 -5.8125 C 13.832031 -6.5 13.453125 -7.191406 13.078125 -7.890625 C 12.710938 -8.597656 12.375 -9.320312 12.0625 -10.0625 C 11.851562 -10.53125 11.632812 -10.992188 11.40625 -11.453125 C 11.1875 -11.910156 11.015625 -12.398438 10.890625 -12.921875 C 10.703125 -13.660156 10.476562 -14.367188 10.21875 -15.046875 C 10.082031 -14.992188 9.960938 -14.960938 9.859375 -14.953125 C 9.753906 -14.941406 9.640625 -14.910156 9.515625 -14.859375 C 9.535156 -14.148438 9.550781 -13.445312 9.5625 -12.75 C 9.582031 -12.050781 9.59375 -11.363281 9.59375 -10.6875 C 9.613281 -9.851562 9.628906 -9.007812 9.640625 -8.15625 C 9.660156 -7.300781 9.671875 -6.457031 9.671875 -5.625 C 9.671875 -5.414062 9.65625 -5.191406 9.625 -4.953125 C 9.601562 -4.710938 9.566406 -4.488281 9.515625 -4.28125 C 9.515625 -4.070312 9.445312 -3.863281 9.3125 -3.65625 C 9.15625 -3.363281 9.007812 -3.070312 8.875 -2.78125 C 8.75 -2.5 8.644531 -2.1875 8.5625 -1.84375 C 8.507812 -1.5625 8.429688 -1.269531 8.328125 -0.96875 C 8.222656 -0.664062 8.132812 -0.367188 8.0625 -0.078125 C 7.476562 -0.0234375 7.117188 -0.0195312 6.984375 -0.0625 C 6.859375 -0.101562 6.769531 -0.253906 6.71875 -0.515625 C 6.582031 -0.359375 6.503906 -0.226562 6.484375 -0.125 C 6.171875 -0.175781 5.851562 -0.234375 5.53125 -0.296875 C 5.21875 -0.359375 4.921875 -0.441406 4.640625 -0.546875 C 4.296875 -0.648438 4.03125 -0.859375 3.84375 -1.171875 C 3.320312 -1.960938 2.929688 -2.695312 2.671875 -3.375 C 2.535156 -3.664062 2.382812 -3.941406 2.21875 -4.203125 C 2.050781 -4.460938 1.890625 -4.738281 1.734375 -5.03125 C 1.648438 -5.15625 1.566406 -5.285156 1.484375 -5.421875 C 1.410156 -5.554688 1.347656 -5.6875 1.296875 -5.8125 C 1.242188 -6.257812 1.15625 -6.691406 1.03125 -7.109375 C 0.914062 -7.523438 0.859375 -7.957031 0.859375 -8.40625 C 0.859375 -8.75 0.863281 -9.082031 0.875 -9.40625 C 0.894531 -9.738281 0.890625 -10.070312 0.859375 -10.40625 C 0.859375 -10.851562 0.84375 -11.289062 0.8125 -11.71875 C 0.789062 -12.15625 0.769531 -12.597656 0.75 -13.046875 C 0.75 -13.304688 0.753906 -13.566406 0.765625 -13.828125 C 0.773438 -14.085938 0.78125 -14.363281 0.78125 -14.65625 C 0.78125 -14.945312 0.773438 -15.21875 0.765625 -15.46875 C 0.753906 -15.71875 0.75 -15.984375 0.75 -16.265625 C 0.75 -16.472656 0.75 -16.6875 0.75 -16.90625 C 0.75 -17.132812 0.757812 -17.367188 0.78125 -17.609375 C 0.8125 -17.890625 0.828125 -18.175781 0.828125 -18.46875 C 0.828125 -18.757812 0.800781 -19.046875 0.75 -19.328125 C 0.695312 -19.648438 0.679688 -19.96875 0.703125 -20.28125 C 0.734375 -20.59375 0.75 -20.921875 0.75 -21.265625 C 0.75 -21.390625 0.753906 -21.523438 0.765625 -21.671875 C 0.773438 -21.816406 0.78125 -21.953125 0.78125 -22.078125 C 0.78125 -22.972656 0.773438 -23.859375 0.765625 -24.734375 C 0.753906 -25.609375 0.734375 -26.492188 0.703125 -27.390625 C 0.679688 -27.835938 0.75 -28.253906 0.90625 -28.640625 C 1.0625 -29.035156 1.257812 -29.414062 1.5 -29.78125 C 1.65625 -29.988281 1.789062 -30.210938 1.90625 -30.453125 C 2.019531 -30.691406 2.144531 -30.914062 2.28125 -31.125 L 2.671875 -31.953125 C 2.984375 -32.503906 3.457031 -32.859375 4.09375 -33.015625 C 4.375 -33.117188 4.609375 -33.257812 4.796875 -33.4375 L 4.875 -32.65625 C 5 -32.894531 5.109375 -33.117188 5.203125 -33.328125 C 5.296875 -33.535156 5.410156 -33.742188 5.546875 -33.953125 C 5.648438 -34.160156 5.816406 -34.289062 6.046875 -34.34375 C 6.179688 -34.34375 6.300781 -34.378906 6.40625 -34.453125 C 6.507812 -34.535156 6.601562 -34.617188 6.6875 -34.703125 C 6.914062 -34.910156 7.164062 -35.046875 7.4375 -35.109375 C 7.71875 -35.171875 8.03125 -35.21875 8.375 -35.25 L 8.921875 -33.90625 L 9.46875 -34.1875 C 11.007812 -35.101562 12.582031 -35.101562 14.1875 -34.1875 C 14.425781 -34.050781 14.632812 -33.90625 14.8125 -33.75 C 15 -33.59375 15.195312 -33.425781 15.40625 -33.25 C 16.21875 -32.507812 16.75 -31.664062 17 -30.71875 C 17.25 -29.78125 17.4375 -28.816406 17.5625 -27.828125 C 17.644531 -27.066406 17.695312 -26.296875 17.71875 -25.515625 C 17.75 -24.742188 17.710938 -23.976562 17.609375 -23.21875 C 17.554688 -22.539062 17.410156 -21.878906 17.171875 -21.234375 C 16.929688 -20.597656 16.59375 -20.015625 16.15625 -19.484375 C 15.945312 -19.222656 15.75 -18.960938 15.5625 -18.703125 C 15.375 -18.441406 15.125 -18.242188 14.8125 -18.109375 C 14.6875 -18.054688 14.597656 -17.957031 14.546875 -17.8125 C 14.492188 -17.675781 14.4375 -17.554688 14.375 -17.453125 Z M 9.546875 -19.609375 C 9.628906 -19.660156 9.6875 -19.691406 9.71875 -19.703125 C 9.757812 -19.722656 9.78125 -19.734375 9.78125 -19.734375 C 10.332031 -20.328125 10.820312 -20.945312 11.25 -21.59375 C 11.6875 -22.238281 12.023438 -22.941406 12.265625 -23.703125 C 12.523438 -24.535156 12.578125 -25.382812 12.421875 -26.25 C 12.335938 -26.644531 12.242188 -27.046875 12.140625 -27.453125 C 12.035156 -27.859375 11.878906 -28.242188 11.671875 -28.609375 L 11.125 -29.46875 C 11.019531 -29.601562 10.914062 -29.726562 10.8125 -29.84375 C 10.707031 -29.957031 10.585938 -30.070312 10.453125 -30.1875 C 10.265625 -30.3125 10.09375 -30.453125 9.9375 -30.609375 C 9.78125 -30.765625 9.5625 -30.867188 9.28125 -30.921875 C 9.488281 -29.035156 9.566406 -27.15625 9.515625 -25.28125 C 9.460938 -23.414062 9.472656 -21.523438 9.546875 -19.609375 Z M 6.515625 -16.78125 C 6.515625 -16.90625 6.519531 -17.015625 6.53125 -17.109375 C 6.550781 -17.203125 6.5625 -17.289062 6.5625 -17.375 L 6.5625 -26.25 C 6.5625 -26.488281 6.539062 -26.726562 6.5 -26.96875 C 6.457031 -27.21875 6.425781 -27.460938 6.40625 -27.703125 C 6.351562 -27.285156 6.3125 -26.660156 6.28125 -25.828125 C 6.257812 -25.003906 6.25 -24.101562 6.25 -23.125 C 6.25 -22.144531 6.257812 -21.1875 6.28125 -20.25 C 6.3125 -19.320312 6.34375 -18.535156 6.375 -17.890625 C 6.414062 -17.253906 6.460938 -16.882812 6.515625 -16.78125 Z M 6.5625 -9.671875 L 6.5625 -4.984375 C 6.75 -5.773438 6.804688 -6.554688 6.734375 -7.328125 C 6.671875 -8.097656 6.613281 -8.878906 6.5625 -9.671875 Z M 6.4375 -14.265625 L 6.640625 -14.265625 C 6.585938 -14.398438 6.570312 -14.53125 6.59375 -14.65625 C 6.625 -14.789062 6.5625 -14.921875 6.40625 -15.046875 C 6.425781 -14.921875 6.4375 -14.789062 6.4375 -14.65625 C 6.4375 -14.53125 6.4375 -14.398438 6.4375 -14.265625 Z M 6.4375 -14.265625 "/></g></g></g><g fill="#000000" fill-opacity="1"><g transform="translate(316.127357, 55.497519)"><g><path d="M 10.40625 -4.5625 L 12.6875 -4.4375 C 13.5 -4.4375 13.945312 -4.054688 14.03125 -3.296875 C 14.082031 -2.984375 14.109375 -2.671875 14.109375 -2.359375 C 14.109375 -2.046875 14.117188 -1.734375 14.140625 -1.421875 C 14.171875 -1.097656 14.039062 -0.898438 13.75 -0.828125 C 13.570312 -0.722656 13.40625 -0.671875 13.25 -0.671875 C 12.800781 -0.617188 12.335938 -0.566406 11.859375 -0.515625 C 11.390625 -0.460938 10.9375 -0.394531 10.5 -0.3125 C 10.050781 -0.257812 9.609375 -0.1875 9.171875 -0.09375 C 8.742188 0 8.304688 0.0820312 7.859375 0.15625 C 7.179688 0.257812 6.492188 0.367188 5.796875 0.484375 C 5.097656 0.609375 4.382812 0.601562 3.65625 0.46875 C 3.15625 0.394531 2.65625 0.3125 2.15625 0.21875 C 1.664062 0.125 1.15625 0.0234375 0.625 -0.078125 C 0.0195312 -0.234375 -0.09375 -0.570312 0.28125 -1.09375 C 0.332031 -1.226562 0.390625 -1.347656 0.453125 -1.453125 C 0.515625 -1.554688 0.585938 -1.675781 0.671875 -1.8125 C 0.722656 -1.882812 0.78125 -1.96875 0.84375 -2.0625 C 0.90625 -2.15625 0.976562 -2.226562 1.0625 -2.28125 L 3.140625 -3.53125 C 3.378906 -3.664062 3.625 -3.769531 3.875 -3.84375 C 4.125 -3.925781 4.378906 -4.019531 4.640625 -4.125 C 4.640625 -4.414062 4.628906 -4.71875 4.609375 -5.03125 C 4.597656 -5.34375 4.582031 -5.65625 4.5625 -5.96875 L 4.203125 -12.84375 C 4.179688 -13.320312 4.175781 -13.789062 4.1875 -14.25 C 4.195312 -14.707031 4.203125 -15.15625 4.203125 -15.59375 L 4.046875 -17.015625 C 4.023438 -17.566406 4 -18.109375 3.96875 -18.640625 C 3.9375 -19.179688 3.9375 -19.710938 3.96875 -20.234375 C 3.96875 -21.148438 3.976562 -22.0625 4 -22.96875 C 4.03125 -23.875 4.070312 -24.785156 4.125 -25.703125 L 4.4375 -29.359375 L 4.828125 -31.125 L 4.90625 -31.515625 L 4.25 -31.515625 C 3.488281 -31.460938 2.742188 -31.5 2.015625 -31.625 C 1.296875 -31.757812 0.582031 -31.921875 -0.125 -32.109375 C -0.59375 -32.234375 -0.695312 -32.519531 -0.4375 -32.96875 C -0.300781 -33.226562 -0.148438 -33.460938 0.015625 -33.671875 C 0.191406 -33.878906 0.421875 -34.039062 0.703125 -34.15625 C 0.835938 -34.207031 0.941406 -34.269531 1.015625 -34.34375 C 1.097656 -34.425781 1.191406 -34.503906 1.296875 -34.578125 C 1.816406 -34.921875 2.382812 -35.148438 3 -35.265625 C 3.613281 -35.390625 4.222656 -35.476562 4.828125 -35.53125 C 5.671875 -35.65625 6.507812 -35.734375 7.34375 -35.765625 C 8.1875 -35.816406 9.003906 -35.84375 9.796875 -35.84375 C 10.597656 -35.84375 11.421875 -35.800781 12.265625 -35.71875 C 12.546875 -35.664062 12.722656 -35.597656 12.796875 -35.515625 C 12.878906 -35.441406 12.9375 -35.257812 12.96875 -34.96875 C 12.988281 -34.757812 13.007812 -34.5625 13.03125 -34.375 C 13.0625 -34.195312 13.078125 -34.003906 13.078125 -33.796875 C 13.078125 -33.484375 13.03125 -33.265625 12.9375 -33.140625 C 12.851562 -33.023438 12.65625 -32.914062 12.34375 -32.8125 C 12.132812 -32.726562 11.910156 -32.660156 11.671875 -32.609375 C 11.429688 -32.554688 11.195312 -32.503906 10.96875 -32.453125 C 10.78125 -32.398438 10.59375 -32.367188 10.40625 -32.359375 C 10.226562 -32.347656 10.035156 -32.316406 9.828125 -32.265625 C 9.847656 -32.179688 9.859375 -32 9.859375 -31.71875 C 10.046875 -30.269531 10.195312 -28.832031 10.3125 -27.40625 C 10.4375 -25.976562 10.5 -24.53125 10.5 -23.0625 C 10.5 -21.988281 10.507812 -20.921875 10.53125 -19.859375 C 10.5625 -18.796875 10.578125 -17.71875 10.578125 -16.625 C 10.578125 -15.101562 10.5625 -13.582031 10.53125 -12.0625 C 10.507812 -10.539062 10.484375 -9.019531 10.453125 -7.5 C 10.453125 -7.113281 10.441406 -6.726562 10.421875 -6.34375 C 10.410156 -5.96875 10.394531 -5.582031 10.375 -5.1875 C 10.375 -5.082031 10.375 -4.976562 10.375 -4.875 C 10.375 -4.769531 10.382812 -4.664062 10.40625 -4.5625 Z M 8.328125 -8.40625 L 8.328125 -21.734375 L 8.296875 -21.734375 L 8.296875 -8.40625 Z M 8.171875 -26.046875 L 8.171875 -24.484375 L 8.21875 -24.484375 L 8.21875 -26.046875 Z M 8.171875 -26.046875 "/></g></g></g><g fill="#000000" fill-opacity="1"><g transform="translate(331.296129, 55.497519)"><g><path d="M 14.21875 -27.3125 L 12.8125 -27.671875 C 12.519531 -27.773438 12.242188 -27.816406 11.984375 -27.796875 C 11.722656 -27.785156 11.460938 -27.675781 11.203125 -27.46875 C 11.066406 -27.363281 10.90625 -27.285156 10.71875 -27.234375 C 10.539062 -27.179688 10.375 -27.113281 10.21875 -27.03125 C 10.082031 -26.976562 9.957031 -26.925781 9.84375 -26.875 C 9.726562 -26.820312 9.65625 -26.707031 9.625 -26.53125 C 9.601562 -26.445312 9.554688 -26.375 9.484375 -26.3125 C 9.421875 -26.25 9.363281 -26.1875 9.3125 -26.125 L 8.921875 -25.703125 C 9.023438 -25.492188 9.132812 -25.289062 9.25 -25.09375 C 9.375 -24.894531 9.523438 -24.703125 9.703125 -24.515625 C 10.097656 -24.148438 10.507812 -23.800781 10.9375 -23.46875 C 11.375 -23.144531 11.789062 -22.800781 12.1875 -22.4375 C 12.257812 -22.382812 12.347656 -22.335938 12.453125 -22.296875 C 12.554688 -22.253906 12.648438 -22.207031 12.734375 -22.15625 C 12.804688 -22.082031 12.84375 -22.054688 12.84375 -22.078125 C 13.113281 -21.847656 13.390625 -21.644531 13.671875 -21.46875 C 13.960938 -21.300781 14.238281 -21.097656 14.5 -20.859375 C 14.738281 -20.648438 14.96875 -20.441406 15.1875 -20.234375 C 15.40625 -20.023438 15.625 -19.800781 15.84375 -19.5625 C 16.207031 -19.175781 16.523438 -18.757812 16.796875 -18.3125 C 17.078125 -17.863281 17.28125 -17.363281 17.40625 -16.8125 C 17.769531 -15.082031 17.910156 -13.351562 17.828125 -11.625 C 17.753906 -9.894531 17.535156 -8.164062 17.171875 -6.4375 C 17.148438 -6.257812 17.101562 -6.082031 17.03125 -5.90625 C 16.96875 -5.738281 16.894531 -5.578125 16.8125 -5.421875 C 16.582031 -4.921875 16.34375 -4.425781 16.09375 -3.9375 C 15.84375 -3.457031 15.5625 -2.992188 15.25 -2.546875 L 15.171875 -2.4375 C 14.804688 -2.144531 14.445312 -1.851562 14.09375 -1.5625 C 13.738281 -1.28125 13.320312 -1.070312 12.84375 -0.9375 C 12.789062 -0.9375 12.753906 -0.953125 12.734375 -0.984375 C 12.703125 -0.984375 12.675781 -0.992188 12.65625 -1.015625 L 11.671875 -0.671875 C 11.410156 -0.566406 11.140625 -0.519531 10.859375 -0.53125 C 10.585938 -0.539062 10.332031 -0.46875 10.09375 -0.3125 L 10.015625 -0.3125 C 9.410156 -0.34375 8.8125 -0.347656 8.21875 -0.328125 C 7.632812 -0.316406 7.039062 -0.414062 6.4375 -0.625 C 6.019531 -0.757812 5.609375 -0.894531 5.203125 -1.03125 C 4.796875 -1.175781 4.382812 -1.332031 3.96875 -1.5 C 3.445312 -1.707031 2.988281 -1.96875 2.59375 -2.28125 C 2.195312 -2.59375 1.882812 -3.007812 1.65625 -3.53125 C 1.445312 -3.976562 1.304688 -4.429688 1.234375 -4.890625 C 1.171875 -5.347656 1.148438 -5.8125 1.171875 -6.28125 C 1.171875 -6.78125 1.164062 -7.269531 1.15625 -7.75 C 1.144531 -8.238281 1.148438 -8.722656 1.171875 -9.203125 C 1.203125 -9.773438 1.304688 -10.316406 1.484375 -10.828125 C 1.671875 -11.335938 1.910156 -11.828125 2.203125 -12.296875 C 2.804688 -13.296875 3.578125 -13.882812 4.515625 -14.0625 C 4.617188 -13.832031 4.664062 -13.5 4.65625 -13.0625 C 4.644531 -12.632812 4.5625 -12.273438 4.40625 -11.984375 C 4.25 -11.671875 4.148438 -11.359375 4.109375 -11.046875 C 4.066406 -10.734375 4.0625 -10.390625 4.09375 -10.015625 C 4.195312 -8.785156 4.570312 -7.6875 5.21875 -6.71875 C 5.539062 -6.269531 5.894531 -5.875 6.28125 -5.53125 C 6.675781 -5.195312 7.148438 -5.003906 7.703125 -4.953125 C 8.015625 -4.898438 8.332031 -4.882812 8.65625 -4.90625 C 8.988281 -4.9375 9.3125 -4.976562 9.625 -5.03125 C 9.882812 -5.050781 10.09375 -5.257812 10.25 -5.65625 C 10.4375 -6.125 10.578125 -6.597656 10.671875 -7.078125 C 10.765625 -7.566406 10.742188 -8.078125 10.609375 -8.609375 L 10.609375 -8.921875 C 10.640625 -9.472656 10.582031 -9.992188 10.4375 -10.484375 C 10.289062 -10.984375 10.125 -11.484375 9.9375 -11.984375 C 9.882812 -12.140625 9.835938 -12.296875 9.796875 -12.453125 C 9.765625 -12.609375 9.722656 -12.765625 9.671875 -12.921875 C 9.535156 -13.609375 9.285156 -14.226562 8.921875 -14.78125 C 8.785156 -14.9375 8.644531 -15.078125 8.5 -15.203125 C 8.363281 -15.335938 8.21875 -15.46875 8.0625 -15.59375 C 7.613281 -15.914062 7.164062 -16.234375 6.71875 -16.546875 C 6.269531 -16.859375 5.8125 -17.160156 5.34375 -17.453125 C 4.945312 -17.679688 4.546875 -17.914062 4.140625 -18.15625 C 3.734375 -18.394531 3.375 -18.679688 3.0625 -19.015625 C 2.78125 -19.304688 2.503906 -19.609375 2.234375 -19.921875 C 1.972656 -20.234375 1.765625 -20.570312 1.609375 -20.9375 C 1.429688 -21.363281 1.296875 -21.796875 1.203125 -22.234375 C 1.109375 -22.679688 1.085938 -23.171875 1.140625 -23.703125 C 1.191406 -24.191406 1.273438 -24.671875 1.390625 -25.140625 C 1.515625 -25.617188 1.65625 -26.09375 1.8125 -26.5625 C 1.9375 -26.957031 2.109375 -27.316406 2.328125 -27.640625 C 2.554688 -27.972656 2.773438 -28.304688 2.984375 -28.640625 C 3.191406 -29.015625 3.425781 -29.359375 3.6875 -29.671875 C 3.957031 -29.984375 4.222656 -30.3125 4.484375 -30.65625 C 4.847656 -31.144531 5.269531 -31.535156 5.75 -31.828125 C 6.238281 -32.117188 6.757812 -32.367188 7.3125 -32.578125 L 8.765625 -33.171875 C 9.128906 -33.328125 9.5 -33.488281 9.875 -33.65625 C 10.257812 -33.820312 10.632812 -33.972656 11 -34.109375 C 11.394531 -34.242188 11.785156 -34.316406 12.171875 -34.328125 C 12.566406 -34.335938 12.953125 -34.210938 13.328125 -33.953125 C 13.484375 -33.816406 13.625 -33.671875 13.75 -33.515625 L 14.546875 -31.90625 C 14.617188 -31.726562 14.65625 -31.53125 14.65625 -31.3125 C 14.789062 -30.113281 14.710938 -28.898438 14.421875 -27.671875 C 14.390625 -27.554688 14.320312 -27.4375 14.21875 -27.3125 Z M 14.21875 -27.3125 "/></g></g></g><g fill="#000000" fill-opacity="1"><g transform="translate(350.001667, 55.497519)"><g><path d="M 4.40625 -34.3125 L 4.59375 -34.109375 C 4.695312 -34.347656 4.8125 -34.546875 4.9375 -34.703125 C 5.070312 -34.859375 5.257812 -34.972656 5.5 -35.046875 C 5.632812 -35.097656 5.757812 -35.171875 5.875 -35.265625 C 5.988281 -35.359375 6.125 -35.457031 6.28125 -35.5625 L 7.109375 -34.703125 C 8.523438 -35.015625 9.953125 -35.09375 11.390625 -34.9375 C 12.835938 -34.78125 14.28125 -34.625 15.71875 -34.46875 C 15.925781 -33.9375 15.96875 -33.398438 15.84375 -32.859375 C 15.8125 -32.585938 15.625 -32.363281 15.28125 -32.1875 C 15.050781 -32.03125 14.765625 -31.9375 14.421875 -31.90625 C 13.367188 -31.695312 12.289062 -31.539062 11.1875 -31.4375 C 10.09375 -31.332031 8.929688 -31.304688 7.703125 -31.359375 C 7.773438 -30.390625 7.84375 -29.421875 7.90625 -28.453125 C 7.976562 -27.484375 8.039062 -26.515625 8.09375 -25.546875 C 8.144531 -24.546875 8.171875 -23.5625 8.171875 -22.59375 C 8.171875 -21.625 8.1875 -20.640625 8.21875 -19.640625 L 8.875 -19.640625 C 9.582031 -19.703125 10.210938 -19.648438 10.765625 -19.484375 C 11.210938 -19.359375 11.5 -19.070312 11.625 -18.625 C 11.707031 -18.175781 11.757812 -17.726562 11.78125 -17.28125 C 11.8125 -16.84375 11.800781 -16.390625 11.75 -15.921875 L 8.09375 -15.921875 C 7.96875 -13.898438 7.863281 -11.898438 7.78125 -9.921875 C 7.695312 -7.941406 7.515625 -5.972656 7.234375 -4.015625 C 7.441406 -3.878906 7.617188 -3.835938 7.765625 -3.890625 C 7.910156 -3.941406 8.046875 -3.984375 8.171875 -4.015625 L 11.828125 -4.515625 C 12.273438 -4.566406 12.703125 -4.601562 13.109375 -4.625 C 13.515625 -4.65625 13.9375 -4.6875 14.375 -4.71875 C 14.4375 -4.738281 14.492188 -4.742188 14.546875 -4.734375 C 14.597656 -4.722656 14.648438 -4.71875 14.703125 -4.71875 C 15.171875 -4.664062 15.476562 -4.570312 15.625 -4.4375 C 15.769531 -4.3125 15.867188 -4.023438 15.921875 -3.578125 C 15.972656 -3.335938 16 -3.097656 16 -2.859375 C 16 -2.628906 16 -2.394531 16 -2.15625 C 16 -1.425781 15.65625 -0.941406 14.96875 -0.703125 C 14.84375 -0.648438 14.71875 -0.609375 14.59375 -0.578125 C 14.476562 -0.554688 14.351562 -0.519531 14.21875 -0.46875 L 13.328125 -0.125 C 13.140625 -0.0078125 12.941406 0.0703125 12.734375 0.125 C 12.441406 0.226562 12.164062 0.3125 11.90625 0.375 C 11.644531 0.4375 11.382812 0.519531 11.125 0.625 C 10.332031 0.914062 9.53125 1.117188 8.71875 1.234375 C 7.90625 1.359375 7.082031 1.328125 6.25 1.140625 C 5.78125 1.035156 5.300781 0.941406 4.8125 0.859375 C 4.332031 0.785156 3.851562 0.679688 3.375 0.546875 C 3.164062 0.492188 2.96875 0.425781 2.78125 0.34375 C 2.601562 0.269531 2.539062 0.0859375 2.59375 -0.203125 C 2.59375 -0.253906 2.578125 -0.289062 2.546875 -0.3125 C 2.523438 -0.34375 2.5 -0.382812 2.46875 -0.4375 C 2.132812 -0.71875 1.90625 -1.039062 1.78125 -1.40625 C 1.664062 -1.78125 1.546875 -2.148438 1.421875 -2.515625 C 1.203125 -3.222656 1.078125 -3.9375 1.046875 -4.65625 C 1.023438 -5.375 0.988281 -6.101562 0.9375 -6.84375 C 0.914062 -7.757812 0.867188 -8.65625 0.796875 -9.53125 C 0.734375 -10.40625 0.675781 -11.289062 0.625 -12.1875 C 0.570312 -13 0.523438 -13.8125 0.484375 -14.625 C 0.453125 -15.4375 0.4375 -16.25 0.4375 -17.0625 C 0.4375 -17.6875 0.445312 -18.304688 0.46875 -18.921875 C 0.5 -19.535156 0.539062 -20.15625 0.59375 -20.78125 C 0.613281 -21.101562 0.648438 -21.410156 0.703125 -21.703125 C 0.753906 -22.003906 0.804688 -22.316406 0.859375 -22.640625 L 0.859375 -22.953125 C 0.910156 -23.503906 0.957031 -24.046875 1 -24.578125 C 1.039062 -25.117188 1.085938 -25.664062 1.140625 -26.21875 C 1.191406 -26.789062 1.265625 -27.359375 1.359375 -27.921875 C 1.453125 -28.484375 1.5625 -29.050781 1.6875 -29.625 C 1.769531 -30.050781 1.863281 -30.46875 1.96875 -30.875 C 2.070312 -31.28125 2.203125 -31.675781 2.359375 -32.0625 C 2.460938 -32.351562 2.585938 -32.613281 2.734375 -32.84375 C 2.878906 -33.082031 3.03125 -33.320312 3.1875 -33.5625 C 3.3125 -33.769531 3.492188 -33.910156 3.734375 -33.984375 C 3.972656 -34.066406 4.195312 -34.175781 4.40625 -34.3125 Z M 5.578125 -29.15625 C 5.523438 -28.289062 5.476562 -27.257812 5.4375 -26.0625 C 5.40625 -24.875 5.375 -23.703125 5.34375 -22.546875 C 5.320312 -21.398438 5.316406 -20.421875 5.328125 -19.609375 C 5.335938 -18.796875 5.367188 -18.335938 5.421875 -18.234375 C 5.453125 -18.316406 5.476562 -18.382812 5.5 -18.4375 C 5.53125 -18.488281 5.546875 -18.539062 5.546875 -18.59375 C 5.566406 -20.375 5.609375 -22.140625 5.671875 -23.890625 C 5.742188 -25.648438 5.710938 -27.40625 5.578125 -29.15625 Z M 5.0625 -7.15625 C 5.226562 -9.269531 5.335938 -10.96875 5.390625 -12.25 C 5.441406 -13.539062 5.457031 -14.519531 5.4375 -15.1875 C 5.425781 -15.851562 5.367188 -16.289062 5.265625 -16.5 C 5.210938 -14.90625 5.175781 -13.332031 5.15625 -11.78125 C 5.144531 -10.238281 5.113281 -8.695312 5.0625 -7.15625 Z M 5.0625 -7.15625 "/></g></g></g><g fill="#000000" fill-opacity="1"><g transform="translate(366.663747, 55.497519)"><g><path d="M 6.484375 -6.328125 C 6.273438 -6.222656 6.082031 -6.195312 5.90625 -6.25 C 5.738281 -6.300781 5.566406 -6.328125 5.390625 -6.328125 C 5.066406 -6.378906 4.8125 -6.492188 4.625 -6.671875 C 4.445312 -6.859375 4.296875 -7.082031 4.171875 -7.34375 C 3.847656 -7.925781 3.660156 -8.515625 3.609375 -9.109375 C 3.554688 -9.710938 3.554688 -10.332031 3.609375 -10.96875 C 3.640625 -11.507812 3.6875 -12.0625 3.75 -12.625 C 3.8125 -13.195312 3.898438 -13.753906 4.015625 -14.296875 C 4.085938 -14.828125 4.171875 -15.351562 4.265625 -15.875 C 4.359375 -16.394531 4.46875 -16.921875 4.59375 -17.453125 C 4.800781 -18.285156 5.023438 -19.101562 5.265625 -19.90625 C 5.503906 -20.707031 5.738281 -21.515625 5.96875 -22.328125 C 6.101562 -22.742188 6.210938 -23.160156 6.296875 -23.578125 C 6.390625 -23.992188 6.476562 -24.410156 6.5625 -24.828125 C 6.613281 -25.148438 6.632812 -25.472656 6.625 -25.796875 C 6.613281 -26.128906 6.5 -26.453125 6.28125 -26.765625 C 6.070312 -26.660156 5.875 -26.570312 5.6875 -26.5 C 5.507812 -26.4375 5.328125 -26.34375 5.140625 -26.21875 C 4.492188 -25.84375 3.765625 -25.75 2.953125 -25.9375 C 2.796875 -25.988281 2.703125 -26.015625 2.671875 -26.015625 C 2.097656 -26.148438 1.953125 -26.488281 2.234375 -27.03125 C 2.503906 -27.5625 2.832031 -28.046875 3.21875 -28.484375 C 3.613281 -28.929688 4.070312 -29.300781 4.59375 -29.59375 L 6.71875 -30.84375 C 7.007812 -31 7.304688 -31.101562 7.609375 -31.15625 C 7.910156 -31.207031 8.21875 -31.25 8.53125 -31.28125 C 8.550781 -31.28125 8.640625 -31.253906 8.796875 -31.203125 C 9.191406 -31.015625 9.53125 -30.789062 9.8125 -30.53125 C 10.101562 -30.269531 10.316406 -29.914062 10.453125 -29.46875 C 10.691406 -28.582031 10.84375 -27.691406 10.90625 -26.796875 C 10.96875 -25.910156 10.972656 -25.007812 10.921875 -24.09375 C 10.898438 -23.457031 10.820312 -22.84375 10.6875 -22.25 C 10.5625 -21.664062 10.390625 -21.070312 10.171875 -20.46875 L 8.921875 -16.9375 C 8.835938 -16.75 8.742188 -16.578125 8.640625 -16.421875 C 8.535156 -16.265625 8.445312 -16.082031 8.375 -15.875 C 8.289062 -15.664062 8.207031 -15.445312 8.125 -15.21875 C 8.050781 -15 7.988281 -14.773438 7.9375 -14.546875 C 7.726562 -13.910156 7.523438 -13.285156 7.328125 -12.671875 C 7.128906 -12.054688 6.96875 -11.421875 6.84375 -10.765625 C 6.6875 -10.191406 6.550781 -9.609375 6.4375 -9.015625 C 6.332031 -8.429688 6.347656 -7.835938 6.484375 -7.234375 C 6.503906 -7.097656 6.507812 -6.953125 6.5 -6.796875 C 6.488281 -6.640625 6.484375 -6.484375 6.484375 -6.328125 Z M 7.8125 -23.03125 C 7.757812 -23.03125 7.722656 -23.039062 7.703125 -23.0625 C 7.617188 -22.851562 7.5 -22.515625 7.34375 -22.046875 C 7.1875 -21.578125 7.023438 -21.070312 6.859375 -20.53125 C 6.691406 -20 6.546875 -19.503906 6.421875 -19.046875 C 6.304688 -18.585938 6.25 -18.25 6.25 -18.03125 C 6.507812 -18.875 6.769531 -19.707031 7.03125 -20.53125 C 7.289062 -21.351562 7.550781 -22.1875 7.8125 -23.03125 Z M 7.3125 -0.359375 C 7.15625 -0.410156 6.976562 -0.394531 6.78125 -0.3125 C 6.582031 -0.238281 6.414062 -0.367188 6.28125 -0.703125 C 6.207031 -0.492188 6.109375 -0.394531 5.984375 -0.40625 C 5.867188 -0.425781 5.75 -0.445312 5.625 -0.46875 C 5.351562 -0.5 5.21875 -0.628906 5.21875 -0.859375 C 4.90625 -0.648438 4.632812 -0.625 4.40625 -0.78125 C 4.21875 -0.96875 4.203125 -1.207031 4.359375 -1.5 C 4.566406 -1.914062 4.789062 -2.3125 5.03125 -2.6875 C 5.269531 -3.070312 5.546875 -3.421875 5.859375 -3.734375 C 6.066406 -3.941406 6.285156 -4.101562 6.515625 -4.21875 C 6.753906 -4.34375 6.976562 -4.46875 7.1875 -4.59375 C 7.289062 -4.382812 7.367188 -4.007812 7.421875 -3.46875 C 7.472656 -2.9375 7.492188 -2.375 7.484375 -1.78125 C 7.472656 -1.195312 7.414062 -0.722656 7.3125 -0.359375 Z M 7.3125 -0.359375 "/></g></g></g></svg>